<svg width="136" height="136" viewBox="0 0 136 136" fill="none" xmlns="http://www.w3.org/2000/svg">
<path d="M40.1573 88.261C45.9966 80.5659 50.1463 81.018 54.2656 84.1435C55.5353 85.1071 56.6489 86.2663 57.8238 87.4884C61.5821 91.399 66.1362 96.1373 75.6613 89.4013C79.6426 86.5859 83.1025 85.0449 87.086 84.9948C90.9526 84.9464 95.0449 86.3465 100.333 89.4052L97.5821 94.1548C93.1787 91.6079 89.9494 90.4397 87.1503 90.4747C84.4678 90.5085 81.9142 91.7046 78.8203 93.8925C65.4536 103.345 59.1073 96.7416 53.8695 91.2918C52.8219 90.2019 51.8282 89.1679 50.956 88.5059C49.4147 87.3363 47.6507 87.4444 44.5196 91.5708L40.1573 88.261Z" fill="white"/>
<path d="M31.3625 52.7405C36.7011 41.2918 45.2055 33.9711 54.6964 30.3313C60.0344 28.2843 65.6905 27.4157 71.2721 27.6439C76.86 27.8724 82.3533 29.1956 87.3615 31.5307C96.2225 35.6626 103.63 42.9518 107.466 52.9536L101.474 55.2351C98.276 46.8964 92.0775 40.8086 84.6537 37.3468C80.3847 35.3564 75.7303 34.2296 71.0215 34.0372C66.3068 33.8446 61.515 34.5834 56.9779 36.3234C48.9627 39.3972 41.7523 45.6403 37.1787 55.4482L31.3625 52.7405Z" fill="white"/>
<path d="M37.1787 80.5651C41.7523 90.373 48.9627 96.616 56.9779 99.6899C61.515 101.43 66.3068 102.169 71.0215 101.976C75.7303 101.784 80.3847 100.657 84.6537 98.6665C92.0775 95.2047 98.276 89.1169 101.474 80.7782L107.466 83.0596C103.63 93.0615 96.2225 100.351 87.3615 104.483C82.3533 106.818 76.86 108.141 71.2721 108.369C65.6905 108.598 60.0344 107.729 54.6964 105.682C45.2055 102.042 36.7011 94.7215 31.3625 83.2727L37.1787 80.5651Z" fill="white"/>
<path d="M28.8357 54.6463C31.62 58.8363 34.4676 62.553 37.421 65.7608C43.7708 59.4712 50.7291 54.9696 58.5628 52.9412C71.6144 49.5617 86.8965 53.0681 105.544 66.6237L107.74 68.22L105.437 69.6609C86.556 81.4746 71.4834 85.4283 58.6615 82.8316C50.7892 81.237 43.8376 77.1999 37.4389 71.0185C34.3527 74.4056 31.4038 78.2478 28.5581 82.4495L25.5353 80.4009C28.5177 75.9973 31.6205 71.965 34.8822 68.4035C31.7381 65.0096 28.7207 61.0852 25.7844 56.6663L28.8357 54.6463ZM39.9696 68.3752C45.8812 74.0877 52.2446 77.8052 59.3778 79.25C65.1442 80.4178 71.46 80.1192 78.4967 78.2107C77.7555 74.7611 77.3004 71.3026 77.2889 67.831C77.277 64.1849 77.7591 60.5543 78.9183 56.9464C71.8035 54.9933 65.3688 54.9547 59.4797 56.4796C52.315 58.3349 45.8859 62.5121 39.9696 68.3752ZM82.0162 77.1416C87.8777 75.1767 94.2254 72.153 101.149 67.9949C94.4214 63.3348 88.1971 60.0744 82.4094 58.0404C81.3657 61.2804 80.9314 64.5468 80.9422 67.831C80.9523 70.8965 81.3553 74.0053 82.0162 77.1416Z" fill="white"/>
<path d="M88.5129 70.993C89.9243 70.993 91.0685 69.7692 91.0685 68.2596C91.0685 66.75 89.9243 65.5262 88.5129 65.5262C87.1015 65.5262 85.9574 66.75 85.9574 68.2596C85.9574 69.7692 87.1015 70.993 88.5129 70.993Z" fill="white"/>
<path d="M64.1307 57.1249C64.4269 57.1249 64.7117 57.178 64.9768 57.2754C64.8521 57.448 64.7394 57.6411 64.6402 57.8521C64.4778 57.8058 64.3068 57.7811 64.1307 57.7811C63.5857 57.7811 63.0921 58.0164 62.7352 58.3961C62.3782 58.7755 62.1574 59.3006 62.1574 59.8802C62.1574 60.4598 62.3782 60.9848 62.7352 61.3643C63.0921 61.7439 63.5857 61.9792 64.1307 61.9792C64.2592 61.9792 64.3848 61.966 64.5066 61.941C64.5881 62.158 64.683 62.3602 64.7897 62.5453C64.5793 62.6041 64.3584 62.6356 64.1307 62.6356C63.4155 62.6356 62.7677 62.327 62.2992 61.8285C61.8305 61.3297 61.5403 60.6409 61.5403 59.8802C61.5403 59.1194 61.8305 58.4307 62.2992 57.9319C62.7677 57.4334 63.4155 57.1249 64.1307 57.1249ZM71.8172 57.1249C72.1135 57.1249 72.3983 57.178 72.6634 57.2754C72.5388 57.448 72.4261 57.6411 72.3269 57.8521C72.1643 57.8058 71.9935 57.7811 71.8172 57.7811C71.2722 57.7811 70.7787 58.0164 70.4217 58.3961C70.0648 58.7755 69.8438 59.3006 69.8438 59.8802C69.8438 60.4598 70.0648 60.9848 70.4217 61.3643C70.7787 61.7439 71.2722 61.9792 71.8172 61.9792C71.9458 61.9792 72.0714 61.966 72.1932 61.941C72.2747 62.158 72.3697 62.3602 72.4763 62.5453C72.2659 62.6041 72.0449 62.6356 71.8172 62.6356C71.1021 62.6356 70.4544 62.327 69.9858 61.8285C69.5171 61.3297 69.227 60.6409 69.227 59.8802C69.227 59.1194 69.5171 58.4307 69.9858 57.9319C70.4544 57.4334 71.1021 57.1249 71.8172 57.1249ZM71.8172 64.6641C72.1135 64.6641 72.3983 64.7171 72.6634 64.8146C72.5388 64.9872 72.4261 65.1803 72.3269 65.3913C72.1643 65.345 71.9935 65.3203 71.8172 65.3203C71.2722 65.3203 70.7787 65.5556 70.4217 65.9353C70.0648 66.3147 69.8438 66.8398 69.8438 67.4194C69.8438 67.999 70.0648 68.524 70.4217 68.9035C70.7787 69.2832 71.2722 69.5184 71.8172 69.5184C71.9458 69.5184 72.0714 69.5052 72.1932 69.4802C72.2747 69.6972 72.3697 69.8994 72.4763 70.0845C72.2659 70.1433 72.0449 70.1746 71.8172 70.1746C71.1021 70.1746 70.4544 69.8662 69.9858 69.3676C69.5171 68.8689 69.227 68.1801 69.227 67.4194C69.227 66.6586 69.5171 65.9699 69.9858 65.4711C70.4544 64.9726 71.1021 64.6641 71.8172 64.6641ZM71.8172 72.1859C72.1135 72.1859 72.3983 72.2389 72.6634 72.3363C72.5388 72.5089 72.4261 72.702 72.3269 72.913C72.1643 72.8668 71.9935 72.8422 71.8172 72.8422C71.2722 72.8422 70.7787 73.0773 70.4217 73.457C70.0648 73.8366 69.8438 74.3615 69.8438 74.9412C69.8438 75.5207 70.0648 76.0458 70.4217 76.4252C70.7787 76.805 71.2722 77.0402 71.8172 77.0402C71.9458 77.0402 72.0714 77.0269 72.1932 77.0019C72.2747 77.219 72.3697 77.4212 72.4763 77.6063C72.2659 77.665 72.0449 77.6965 71.8172 77.6965C71.1021 77.6965 70.4544 77.3879 69.9858 76.8895C69.5171 76.3907 69.227 75.7019 69.227 74.9412C69.227 74.1804 69.5171 73.4916 69.9858 72.9928C70.4544 72.4943 71.1021 72.1859 71.8172 72.1859ZM64.1307 72.1859C64.4269 72.1859 64.7117 72.2389 64.9768 72.3363C64.8521 72.5089 64.7394 72.702 64.6402 72.913C64.4778 72.8668 64.3068 72.8422 64.1307 72.8422C63.5857 72.8422 63.0921 73.0773 62.7352 73.457C62.3782 73.8366 62.1574 74.3615 62.1574 74.9412C62.1574 75.5207 62.3782 76.0458 62.7352 76.4252C63.0921 76.805 63.5857 77.0402 64.1307 77.0402C64.2592 77.0402 64.3848 77.0269 64.5066 77.0019C64.5881 77.219 64.683 77.4212 64.7897 77.6063C64.5793 77.665 64.3584 77.6965 64.1307 77.6965C63.4155 77.6965 62.7677 77.3879 62.2992 76.8895C61.8305 76.3907 61.5403 75.7019 61.5403 74.9412C61.5403 74.1804 61.8305 73.4916 62.2992 72.9928C62.7677 72.4943 63.4155 72.1859 64.1307 72.1859ZM64.1307 64.6641C64.4269 64.6641 64.7117 64.7171 64.9768 64.8146C64.8521 64.9872 64.7394 65.1803 64.6402 65.3913C64.4778 65.345 64.3068 65.3203 64.1307 65.3203C63.5857 65.3203 63.0921 65.5556 62.7352 65.9353C62.3782 66.3147 62.1574 66.8398 62.1574 67.4194C62.1574 67.999 62.3782 68.524 62.7352 68.9035C63.0921 69.2832 63.5857 69.5184 64.1307 69.5184C64.2592 69.5184 64.3848 69.5052 64.5066 69.4802C64.5881 69.6972 64.683 69.8994 64.7897 70.0845C64.5793 70.1433 64.3584 70.1746 64.1307 70.1746C63.4155 70.1746 62.7677 69.8662 62.2992 69.3676C61.8305 68.8689 61.5403 68.1801 61.5403 67.4194C61.5403 66.6586 61.8305 65.9699 62.2992 65.4711C62.7677 64.9726 63.4155 64.6641 64.1307 64.6641ZM57.387 61.4982C57.6832 61.4982 57.9679 61.5512 58.2331 61.6486C58.1085 61.8212 57.9956 62.0143 57.8966 62.2254C57.734 62.1791 57.5632 62.1544 57.387 62.1544C56.8419 62.1544 56.3484 62.3897 55.9914 62.7693C55.6344 63.1488 55.4136 63.6738 55.4136 64.2535C55.4136 64.833 55.6344 65.3581 55.9914 65.7375C56.3484 66.1172 56.8419 66.3525 57.387 66.3525C57.5154 66.3525 57.6412 66.3392 57.7629 66.3143C57.8443 66.5312 57.9392 66.7335 58.0459 66.9185C57.8356 66.9773 57.6146 67.0088 57.387 67.0088C56.6718 67.0088 56.024 66.7002 55.5554 66.2017C55.0867 65.7029 54.7965 65.0142 54.7965 64.2535C54.7965 63.4927 55.0867 62.8039 55.5554 62.3052C56.024 61.8066 56.6718 61.4982 57.387 61.4982ZM57.387 69.1075C57.6832 69.1075 57.9679 69.1606 58.2331 69.258C58.1085 69.4306 57.9956 69.6237 57.8966 69.8347C57.734 69.7884 57.5632 69.7637 57.387 69.7637C56.8419 69.7637 56.3484 69.999 55.9914 70.3787C55.6344 70.7581 55.4136 71.2832 55.4136 71.8628C55.4136 72.4424 55.6344 72.9674 55.9914 73.3469C56.3484 73.7267 56.8419 73.9618 57.387 73.9618C57.5154 73.9618 57.6412 73.9486 57.7629 73.9236C57.8443 74.1407 57.9392 74.3428 58.0459 74.5279C57.8356 74.5867 57.6146 74.6181 57.387 74.6181C56.6718 74.6181 56.024 74.3096 55.5554 73.811C55.0867 73.3123 54.7965 72.6235 54.7965 71.8628C54.7965 71.102 55.0867 70.4133 55.5554 69.9145C56.024 69.416 56.6718 69.1075 57.387 69.1075ZM50.927 64.6641C51.2233 64.6641 51.508 64.7171 51.7732 64.8146C51.6485 64.9872 51.5357 65.1803 51.4366 65.3913C51.274 65.345 51.1032 65.3203 50.927 65.3203C50.382 65.3203 49.8885 65.5556 49.5315 65.9353C49.1746 66.3147 48.9536 66.8398 48.9536 67.4194C48.9536 67.999 49.1746 68.524 49.5315 68.9035C49.8885 69.2832 50.382 69.5184 50.927 69.5184C51.0556 69.5184 51.1812 69.5052 51.303 69.4802C51.3843 69.6972 51.4794 69.8994 51.5861 70.0845C51.3756 70.1433 51.1547 70.1746 50.927 70.1746C50.2119 70.1746 49.564 69.8662 49.0955 69.3676C48.6267 68.8689 48.3366 68.1801 48.3366 67.4194C48.3366 66.6586 48.6267 65.9699 49.0955 65.4711C49.564 64.9726 50.2119 64.6641 50.927 64.6641Z" fill="white"/>
<path d="M64.1313 56.8646C64.292 56.8646 64.4508 56.8791 64.606 56.9068C64.7645 56.9345 64.9191 56.9769 65.0668 57.0313L65.388 57.1495L65.1877 57.4262C65.1297 57.5065 65.0746 57.591 65.0234 57.6789C64.9701 57.7717 64.92 57.8663 64.8753 57.9614L64.7811 58.1621L64.5698 58.1015C64.4979 58.081 64.4248 58.0651 64.3534 58.0552C64.2842 58.0459 64.2099 58.0407 64.1313 58.0407C63.9006 58.0407 63.6807 58.0896 63.481 58.1774C63.2722 58.2694 63.0827 58.4053 62.9247 58.5735C62.7651 58.7432 62.6363 58.9462 62.5491 59.1703C62.4648 59.3876 62.4178 59.6272 62.4178 59.8798C62.4178 60.1325 62.4648 60.3721 62.5491 60.5893C62.6363 60.8134 62.7651 61.0164 62.9247 61.1861C63.0827 61.3542 63.2722 61.4902 63.481 61.5822C63.6807 61.67 63.9006 61.719 64.1313 61.719C64.1911 61.719 64.2455 61.7161 64.2936 61.7114C64.3484 61.706 64.403 61.6974 64.4554 61.6867L64.6725 61.6428L64.7499 61.8492C64.7897 61.9555 64.831 62.0542 64.8729 62.1436C64.9176 62.2387 64.9652 62.33 65.0145 62.416L65.1808 62.7051L64.8594 62.7947C64.7432 62.8272 64.622 62.8524 64.4986 62.8692C64.3749 62.8859 64.252 62.895 64.1313 62.895C63.744 62.895 63.3738 62.8123 63.0364 62.664C62.6876 62.5104 62.3731 62.2848 62.1108 62.0058C61.8501 61.7283 61.6388 61.3956 61.4954 61.0265C61.3576 60.672 61.2809 60.2842 61.2809 59.8798C61.2809 59.4753 61.3576 59.0876 61.4954 58.7331C61.6388 58.364 61.8501 58.0313 62.1108 57.7537C62.3731 57.4748 62.6876 57.2493 63.0364 57.0956C63.3738 56.9472 63.744 56.8646 64.1313 56.8646ZM64.5166 57.4182C64.392 57.3961 64.2632 57.3844 64.1313 57.3844C63.8171 57.3844 63.5174 57.451 63.2453 57.5708C62.9607 57.696 62.7037 57.8809 62.4887 58.1093C62.2722 58.3395 62.0973 58.6151 61.9788 58.9197C61.8644 59.2139 61.8008 59.5385 61.8008 59.8798C61.8008 60.2211 61.8644 60.5457 61.9788 60.8399C62.0973 61.1445 62.2722 61.4201 62.4887 61.6503C62.7037 61.8788 62.9607 62.0636 63.2453 62.1888C63.5174 62.3086 63.8171 62.3752 64.1313 62.3752C64.2259 62.3752 64.3167 62.3697 64.4022 62.3594L64.343 62.2273C64.2686 62.2346 64.1974 62.2387 64.1313 62.2387C63.8278 62.2387 63.5372 62.174 63.2722 62.0573C62.9989 61.9373 62.752 61.7602 62.5467 61.5417C62.3427 61.3249 62.1782 61.0647 62.0656 60.776C61.958 60.4987 61.8979 60.1956 61.8979 59.8798C61.8979 59.564 61.958 59.2609 62.0656 58.9837C62.1782 58.6949 62.3427 58.4348 62.5467 58.2179C62.752 57.9994 62.9989 57.8223 63.2722 57.7023C63.5372 57.5856 63.8278 57.5209 64.1313 57.5209C64.2275 57.5209 64.3255 57.5281 64.4246 57.5417L64.5004 57.5537L64.5698 57.4283L64.5166 57.4182ZM71.8179 56.8646C71.9785 56.8646 72.1376 56.8791 72.2925 56.9065C72.4511 56.9345 72.6058 56.9769 72.7533 57.0313L73.0746 57.1495L72.8742 57.4262C72.8162 57.5065 72.7611 57.591 72.7099 57.6789C72.6566 57.7717 72.6065 57.8663 72.5618 57.9614L72.4677 58.1621L72.2563 58.1015C72.1844 58.081 72.1113 58.0651 72.0398 58.0552C71.9708 58.0459 71.8964 58.0407 71.8179 58.0407C71.5871 58.0407 71.3673 58.0896 71.1677 58.1774C70.9587 58.2694 70.7692 58.4053 70.6112 58.5735C70.4516 58.7432 70.323 58.9462 70.2356 59.1703C70.1514 59.3876 70.1043 59.6272 70.1043 59.8798C70.1043 60.1325 70.1514 60.3721 70.2356 60.5893C70.323 60.8134 70.4516 61.0164 70.6112 61.1861C70.7692 61.3542 70.9587 61.4902 71.1677 61.5822C71.3673 61.67 71.5871 61.719 71.8179 61.719C71.8777 61.719 71.932 61.7161 71.9801 61.7114C72.0349 61.706 72.0895 61.6974 72.1421 61.6867L72.359 61.6428L72.4365 61.8492C72.4763 61.9555 72.5176 62.0542 72.5595 62.1436C72.6042 62.2387 72.6517 62.33 72.7011 62.416L72.8674 62.7051L72.546 62.7947C72.4298 62.8272 72.3086 62.8524 72.1852 62.8692C72.0614 62.8859 71.9385 62.895 71.8179 62.895C71.4307 62.895 71.0603 62.8123 70.7229 62.664C70.3742 62.5104 70.0596 62.2848 69.7974 62.0058C69.5367 61.7283 69.3254 61.3956 69.182 61.0265C69.0442 60.672 68.9675 60.2842 68.9675 59.8798C68.9675 59.4753 69.0442 59.0876 69.182 58.7331C69.3254 58.364 69.5367 58.0313 69.7974 57.7537C70.0596 57.4748 70.3742 57.2493 70.7229 57.0956C71.0603 56.9472 71.4307 56.8646 71.8179 56.8646ZM72.203 57.4179C72.0791 57.3961 71.9499 57.3844 71.8179 57.3844C71.5037 57.3844 71.2041 57.451 70.9319 57.5708C70.6473 57.696 70.3902 57.8809 70.1753 58.1093C69.9588 58.3395 69.7839 58.6151 69.6653 58.9197C69.551 59.2139 69.4873 59.5385 69.4873 59.8798C69.4873 60.2211 69.551 60.5457 69.6653 60.8399C69.7839 61.1445 69.9588 61.4201 70.1753 61.6503C70.3902 61.8788 70.6473 62.0636 70.9319 62.1888C71.2041 62.3086 71.5037 62.3752 71.8179 62.3752C71.9126 62.3752 72.0032 62.3697 72.0888 62.3594L72.0295 62.2273C71.9551 62.2346 71.884 62.2387 71.8179 62.2387C71.5143 62.2387 71.2238 62.174 70.9587 62.0573C70.6855 61.9373 70.4385 61.7602 70.2333 61.5417C70.0292 61.3249 69.8647 61.0647 69.7522 60.776C69.6446 60.4987 69.5846 60.1956 69.5846 59.8798C69.5846 59.564 69.6446 59.2609 69.7522 58.9837C69.8647 58.6949 70.0292 58.4348 70.2333 58.2179C70.4385 57.9994 70.6855 57.8223 70.9587 57.7023C71.2238 57.5856 71.5143 57.5209 71.8179 57.5209C71.9141 57.5209 72.0121 57.5281 72.1111 57.5417L72.187 57.5537L72.2563 57.4281L72.203 57.4179ZM71.8179 64.4038C71.9785 64.4038 72.1376 64.4183 72.2925 64.4456C72.4511 64.4737 72.6058 64.5161 72.7533 64.5703L73.0746 64.6887L72.8742 64.9655C72.8162 65.0457 72.7611 65.1302 72.7099 65.2181C72.6566 65.3109 72.6065 65.4055 72.5618 65.5006L72.4677 65.7013L72.2563 65.6407C72.1844 65.6202 72.1113 65.6043 72.0398 65.5944C71.9708 65.5851 71.8964 65.5799 71.8179 65.5799C71.5871 65.5799 71.3673 65.6288 71.1677 65.7166C70.9587 65.8086 70.7692 65.9446 70.6112 66.1127C70.4516 66.2824 70.323 66.4854 70.2356 66.7095C70.1514 66.9267 70.1043 67.1664 70.1043 67.4191C70.1043 67.6716 70.1514 67.9113 70.2356 68.1285C70.323 68.3526 70.4516 68.5556 70.6112 68.7253C70.7692 68.8934 70.9587 69.0294 71.1677 69.1214C71.3673 69.2092 71.5871 69.2582 71.8179 69.2582C71.8777 69.2582 71.932 69.2553 71.9801 69.2506C72.0349 69.2452 72.0895 69.2366 72.1421 69.2259L72.359 69.182L72.4365 69.3884C72.4763 69.4947 72.5176 69.5934 72.5595 69.6828C72.6042 69.7779 72.6517 69.8692 72.7011 69.9552L72.8674 70.2443L72.546 70.3338C72.4298 70.3664 72.3086 70.3916 72.1852 70.4084C72.0614 70.4251 71.9385 70.4342 71.8179 70.4342C71.4307 70.4342 71.0603 70.3515 70.7229 70.2032C70.3742 70.0495 70.0596 69.824 69.7974 69.545C69.5367 69.2675 69.3254 68.9348 69.182 68.5657C69.0442 68.2112 68.9675 67.8235 68.9675 67.4191C68.9675 67.0145 69.0442 66.6268 69.182 66.2723C69.3254 65.9032 69.5367 65.5705 69.7974 65.293C70.0596 65.014 70.3742 64.7885 70.7229 64.6348C71.0603 64.4864 71.4307 64.4038 71.8179 64.4038ZM72.203 64.9571C72.0791 64.9353 71.9499 64.9236 71.8179 64.9236C71.5037 64.9236 71.2041 64.9902 70.9319 65.11C70.6473 65.2352 70.3902 65.42 70.1753 65.6485C69.9588 65.8787 69.7839 66.1543 69.6653 66.4589C69.551 66.7531 69.4873 67.0777 69.4873 67.4191C69.4873 67.7603 69.551 68.0849 69.6653 68.3791C69.7839 68.6837 69.9588 68.9592 70.1753 69.1895C70.3902 69.418 70.6473 69.6028 70.9319 69.728C71.2041 69.8478 71.5037 69.9144 71.8179 69.9144C71.9126 69.9144 72.0032 69.9089 72.0888 69.8986L72.0295 69.7665C71.9551 69.7738 71.884 69.7779 71.8179 69.7779C71.5143 69.7779 71.2238 69.7132 70.9587 69.5965C70.6855 69.4765 70.4385 69.2994 70.2333 69.0809C70.0292 68.8641 69.8647 68.6039 69.7522 68.3151C69.6446 68.0379 69.5846 67.7347 69.5846 67.4191C69.5846 67.1033 69.6446 66.8001 69.7522 66.5229C69.8647 66.2341 70.0292 65.9738 70.2333 65.7571C70.4385 65.5386 70.6855 65.3615 70.9587 65.2415C71.2238 65.1248 71.5143 65.0601 71.8179 65.0601C71.9141 65.0601 72.0121 65.0673 72.1111 65.0808L72.187 65.0929L72.2563 64.9673L72.203 64.9571ZM71.8179 71.9256C71.9785 71.9256 72.1376 71.9401 72.2925 71.9674C72.4511 71.9955 72.6058 72.0378 72.7533 72.0922L73.0746 72.2104L72.8742 72.4872C72.8162 72.5676 72.7611 72.6521 72.7099 72.7398C72.6566 72.8326 72.6065 72.9273 72.5618 73.0224L72.4677 73.223L72.2563 73.1624C72.1844 73.1419 72.1113 73.1261 72.0398 73.1163C71.9708 73.1068 71.8964 73.1017 71.8179 73.1017C71.5871 73.1017 71.3673 73.1505 71.1677 73.2384C70.9587 73.3303 70.7692 73.4663 70.6112 73.6344C70.4516 73.8041 70.323 74.0071 70.2356 74.2312C70.1514 74.4485 70.1043 74.6881 70.1043 74.9408C70.1043 75.1934 70.1514 75.4331 70.2356 75.6504C70.323 75.8743 70.4516 76.0773 70.6112 76.2471C70.7692 76.4153 70.9587 76.5511 71.1677 76.6432C71.3673 76.7311 71.5871 76.7799 71.8179 76.7799C71.8777 76.7799 71.932 76.777 71.9801 76.7723C72.0349 76.7669 72.0895 76.7583 72.1421 76.7477L72.359 76.7037L72.4365 76.9101C72.4763 77.0164 72.5176 77.1152 72.5595 77.2045C72.6042 77.2998 72.6517 77.3909 72.7011 77.477L72.8674 77.766L72.546 77.8557C72.4298 77.8881 72.3086 77.9134 72.1852 77.9303C72.0614 77.9469 71.9385 77.956 71.8179 77.956C71.4307 77.956 71.0603 77.8733 70.7229 77.7249C70.3742 77.5713 70.0596 77.3457 69.7974 77.0668C69.5367 76.7893 69.3254 76.4565 69.182 76.0875C69.0442 75.7329 68.9675 75.3452 68.9675 74.9408C68.9675 74.5364 69.0442 74.1486 69.182 73.794C69.3254 73.4249 69.5367 73.0923 69.7974 72.8147C70.0596 72.5359 70.3742 72.3102 70.7229 72.1567C71.0603 72.0082 71.4307 71.9256 71.8179 71.9256ZM72.203 72.4789C72.0791 72.457 71.9499 72.4454 71.8179 72.4454C71.5037 72.4454 71.2041 72.5119 70.9319 72.6317C70.6473 72.7571 70.3902 72.9418 70.1753 73.1702C69.9588 73.4006 69.7839 73.676 69.6653 73.9807C69.551 74.2748 69.4873 74.5996 69.4873 74.9408C69.4873 75.282 69.551 75.6066 69.6653 75.9008C69.7839 76.2054 69.9588 76.481 70.1753 76.7113C70.3902 76.9397 70.6473 77.1245 70.9319 77.2499C71.2041 77.3697 71.5037 77.4362 71.8179 77.4362C71.9126 77.4362 72.0032 77.4307 72.0888 77.4203L72.0295 77.2883C71.9551 77.2955 71.884 77.2998 71.8179 77.2998C71.5143 77.2998 71.2238 77.235 70.9587 77.1182C70.6855 76.9982 70.4385 76.8212 70.2333 76.6026C70.0292 76.3859 69.8647 76.1258 69.7522 75.837C69.6446 75.5596 69.5846 75.2566 69.5846 74.9408C69.5846 74.625 69.6446 74.322 69.7522 74.0446C69.8647 73.7558 70.0292 73.4957 70.2333 73.279C70.4385 73.0603 70.6855 72.8834 70.9587 72.7632C71.2238 72.6465 71.5143 72.5818 71.8179 72.5818C71.9141 72.5818 72.0121 72.5891 72.1111 72.6026L72.187 72.6146L72.2563 72.4891L72.203 72.4789ZM64.1313 71.9256C64.292 71.9256 64.4508 71.9401 64.606 71.9677C64.7645 71.9955 64.9191 72.0378 65.0668 72.0922L65.388 72.2104L65.1877 72.4872C65.1297 72.5676 65.0746 72.6521 65.0234 72.7398C64.9701 72.8326 64.92 72.9273 64.8753 73.0224L64.7811 73.223L64.5698 73.1624C64.4979 73.1419 64.4248 73.1261 64.3534 73.1163C64.2842 73.1068 64.2099 73.1017 64.1313 73.1017C63.9006 73.1017 63.6807 73.1505 63.481 73.2384C63.2722 73.3303 63.0827 73.4663 62.9247 73.6344C62.7651 73.8041 62.6363 74.0071 62.5491 74.2312C62.4648 74.4485 62.4178 74.6881 62.4178 74.9408C62.4178 75.1934 62.4648 75.4331 62.5491 75.6504C62.6363 75.8743 62.7651 76.0773 62.9247 76.2471C63.0827 76.4153 63.2722 76.5511 63.481 76.6432C63.6807 76.7311 63.9006 76.7799 64.1313 76.7799C64.1911 76.7799 64.2455 76.777 64.2936 76.7723C64.3484 76.7669 64.403 76.7583 64.4554 76.7477L64.6725 76.7037L64.7499 76.9101C64.7897 77.0164 64.831 77.1152 64.8729 77.2045C64.9176 77.2998 64.9652 77.3909 65.0145 77.477L65.1808 77.766L64.8594 77.8557C64.7432 77.8881 64.622 77.9134 64.4986 77.9303C64.3749 77.9469 64.252 77.956 64.1313 77.956C63.744 77.956 63.3738 77.8733 63.0364 77.7249C62.6876 77.5713 62.3731 77.3457 62.1108 77.0668C61.8501 76.7893 61.6388 76.4565 61.4954 76.0875C61.3576 75.7329 61.2809 75.3452 61.2809 74.9408C61.2809 74.5364 61.3576 74.1486 61.4954 73.794C61.6388 73.4249 61.8501 73.0923 62.1108 72.8147C62.3731 72.5359 62.6876 72.3102 63.0364 72.1567C63.3738 72.0082 63.744 71.9256 64.1313 71.9256ZM64.5166 72.4792C64.392 72.457 64.2632 72.4454 64.1313 72.4454C63.8171 72.4454 63.5174 72.5119 63.2453 72.6317C62.9607 72.7571 62.7037 72.9418 62.4887 73.1702C62.2722 73.4006 62.0973 73.676 61.9788 73.9807C61.8644 74.2748 61.8008 74.5996 61.8008 74.9408C61.8008 75.282 61.8644 75.6066 61.9788 75.9008C62.0973 76.2054 62.2722 76.481 62.4887 76.7113C62.7037 76.9397 62.9607 77.1245 63.2453 77.2499C63.5174 77.3697 63.8171 77.4362 64.1313 77.4362C64.2259 77.4362 64.3167 77.4307 64.4022 77.4203L64.343 77.2883C64.2686 77.2955 64.1974 77.2998 64.1313 77.2998C63.8278 77.2998 63.5372 77.235 63.2722 77.1182C62.9989 76.9982 62.752 76.8212 62.5467 76.6026C62.3427 76.3859 62.1782 76.1258 62.0656 75.837C61.958 75.5596 61.8979 75.2566 61.8979 74.9408C61.8979 74.625 61.958 74.322 62.0656 74.0446C62.1782 73.7558 62.3427 73.4957 62.5467 73.279C62.752 73.0603 62.9989 72.8834 63.2722 72.7632C63.5372 72.6465 63.8278 72.5818 64.1313 72.5818C64.2275 72.5818 64.3255 72.5891 64.4246 72.6026L64.5004 72.6146L64.5698 72.4894L64.5166 72.4792ZM64.1313 64.4038C64.292 64.4038 64.4508 64.4183 64.606 64.4459C64.7645 64.4737 64.9191 64.5161 65.0668 64.5703L65.388 64.6887L65.1877 64.9655C65.1297 65.0457 65.0746 65.1302 65.0234 65.2181C64.9701 65.3109 64.92 65.4055 64.8753 65.5006L64.7811 65.7013L64.5698 65.6407C64.4979 65.6202 64.4248 65.6043 64.3534 65.5944C64.2842 65.5851 64.2099 65.5799 64.1313 65.5799C63.9006 65.5799 63.6807 65.6288 63.481 65.7166C63.2722 65.8086 63.0827 65.9446 62.9247 66.1127C62.7651 66.2824 62.6363 66.4854 62.5491 66.7095C62.4648 66.9267 62.4178 67.1664 62.4178 67.4191C62.4178 67.6716 62.4648 67.9113 62.5491 68.1285C62.6363 68.3526 62.7651 68.5556 62.9247 68.7253C63.0827 68.8934 63.2722 69.0294 63.481 69.1214C63.6807 69.2092 63.9006 69.2582 64.1313 69.2582C64.1911 69.2582 64.2455 69.2553 64.2936 69.2506C64.3484 69.2452 64.403 69.2366 64.4554 69.2259L64.6725 69.182L64.7499 69.3884C64.7897 69.4947 64.831 69.5934 64.8729 69.6828C64.9176 69.7779 64.9652 69.8692 65.0145 69.9552L65.1808 70.2443L64.8594 70.3338C64.7432 70.3664 64.622 70.3916 64.4986 70.4084C64.3749 70.4251 64.252 70.4342 64.1313 70.4342C63.744 70.4342 63.3738 70.3515 63.0364 70.2032C62.6876 70.0495 62.3731 69.824 62.1108 69.545C61.8501 69.2675 61.6388 68.9348 61.4954 68.5657C61.3576 68.2112 61.2809 67.8235 61.2809 67.4191C61.2809 67.0145 61.3576 66.6268 61.4954 66.2723C61.6388 65.9032 61.8501 65.5705 62.1108 65.293C62.3731 65.014 62.6876 64.7885 63.0364 64.6348C63.3738 64.4864 63.744 64.4038 64.1313 64.4038ZM64.5166 64.9574C64.392 64.9353 64.2632 64.9236 64.1313 64.9236C63.8171 64.9236 63.5174 64.9902 63.2453 65.11C62.9607 65.2352 62.7037 65.42 62.4887 65.6485C62.2722 65.8787 62.0973 66.1543 61.9788 66.4589C61.8644 66.7531 61.8008 67.0777 61.8008 67.4191C61.8008 67.7603 61.8644 68.0849 61.9788 68.3791C62.0973 68.6837 62.2722 68.9592 62.4887 69.1895C62.7037 69.418 62.9607 69.6028 63.2453 69.728C63.5174 69.8478 63.8171 69.9144 64.1313 69.9144C64.2259 69.9144 64.3167 69.9089 64.4022 69.8986L64.343 69.7665C64.2686 69.7738 64.1974 69.7779 64.1313 69.7779C63.8278 69.7779 63.5372 69.7132 63.2722 69.5965C62.9989 69.4765 62.752 69.2994 62.5467 69.0809C62.3427 68.8641 62.1782 68.6039 62.0656 68.3151C61.958 68.0379 61.8979 67.7347 61.8979 67.4191C61.8979 67.1033 61.958 66.8001 62.0656 66.5229C62.1782 66.2341 62.3427 65.9738 62.5467 65.7571C62.752 65.5386 62.9989 65.3615 63.2722 65.2415C63.5372 65.1248 63.8278 65.0601 64.1313 65.0601C64.2275 65.0601 64.3255 65.0673 64.4246 65.0808L64.5004 65.0929L64.5698 64.9675L64.5166 64.9574ZM57.3875 61.2378C57.5481 61.2378 57.7074 61.2524 57.8621 61.28C58.021 61.3077 58.1752 61.3501 58.3231 61.4045L58.6445 61.5227L58.444 61.7995C58.3874 61.878 58.3323 61.9627 58.28 62.0524C58.2247 62.1486 58.1745 62.2427 58.1316 62.3347L58.0381 62.535L57.8263 62.4747C57.754 62.4542 57.6809 62.4383 57.6094 62.4284C57.5404 62.4192 57.466 62.414 57.3875 62.414C57.1567 62.414 56.9369 62.4628 56.7373 62.5507C56.5283 62.6426 56.339 62.7788 56.181 62.9467C56.0214 63.1165 55.8925 63.3194 55.8052 63.5435C55.7209 63.7608 55.6739 64.0005 55.6739 64.2531C55.6739 64.5057 55.7209 64.7454 55.8052 64.9626C55.8925 65.1866 56.0214 65.3896 56.181 65.5593C56.339 65.7272 56.5283 65.8634 56.7373 65.9554C56.9369 66.0433 57.1567 66.0922 57.3875 66.0922C57.4473 66.0922 57.5016 66.0893 57.5497 66.0846C57.6045 66.0792 57.6591 66.0706 57.7117 66.0599L57.9284 66.016L58.0061 66.2224C58.0461 66.3289 58.0877 66.4285 58.1298 66.5182C58.1725 66.6091 58.2197 66.6996 58.2709 66.7882L58.4388 67.0779L58.1158 67.168C57.999 67.2004 57.878 67.2256 57.7548 67.2425C57.631 67.2591 57.5081 67.2683 57.3875 67.2683C57.0005 67.2683 56.6299 67.1856 56.2925 67.0372C55.9437 66.8836 55.6292 66.658 55.367 66.3791C55.1063 66.1015 54.8953 65.7688 54.7518 65.3997C54.6138 65.0455 54.5374 64.658 54.5374 64.2531C54.5374 63.8481 54.6138 63.4606 54.7518 63.1063C54.8955 62.737 55.1063 62.4046 55.367 62.127C55.6292 61.8481 55.9437 61.6225 56.2925 61.4689C56.6299 61.3205 57.0005 61.2378 57.3875 61.2378ZM57.7726 61.7914C57.6485 61.7694 57.5193 61.7577 57.3875 61.7577C57.0736 61.7577 56.7737 61.8242 56.5015 61.944C56.2169 62.0692 55.9598 62.254 55.7449 62.4826C55.5284 62.7128 55.3538 62.9883 55.2352 63.2929C55.1205 63.5871 55.0571 63.9115 55.0571 64.2531C55.0571 64.5946 55.1205 64.9192 55.2352 65.2132C55.3538 65.5177 55.5284 65.7933 55.7449 66.0235C55.9598 66.252 56.2169 66.4368 56.5015 66.5621C56.7737 66.6819 57.0736 66.7484 57.3875 66.7484C57.4822 66.7484 57.5728 66.743 57.6586 66.7324L57.5993 66.6005C57.5247 66.6079 57.4535 66.612 57.3875 66.612C57.0839 66.612 56.7933 66.5472 56.5283 66.4306C56.2549 66.3103 56.0084 66.1332 55.8031 65.9149C55.5993 65.6984 55.4343 65.438 55.3217 65.1493C55.2142 64.8719 55.1542 64.5688 55.1542 64.2531C55.1542 63.9373 55.2142 63.6342 55.3217 63.3569C55.4343 63.0681 55.5993 62.8076 55.8031 62.5912C56.0084 62.3729 56.2549 62.1958 56.5283 62.0755C56.7933 61.9588 57.0839 61.8941 57.3875 61.8941C57.4837 61.8941 57.5816 61.9013 57.6807 61.9148L57.7566 61.9269L57.8257 61.8015L57.7726 61.7914ZM57.3875 68.8471C57.5481 68.8471 57.7074 68.8617 57.8621 68.8893C58.021 68.9171 58.1752 68.9595 58.3231 69.0138L58.6445 69.1321L58.444 69.4088C58.3874 69.4873 58.3323 69.572 58.28 69.6617C58.2247 69.7579 58.1745 69.852 58.1316 69.944L58.0381 70.1445L57.8263 70.0841C57.754 70.0636 57.6809 70.0477 57.6094 70.0378C57.5404 70.0285 57.466 70.0233 57.3875 70.0233C57.1567 70.0233 56.9369 70.0722 56.7373 70.16C56.5283 70.252 56.339 70.3882 56.181 70.5561C56.0214 70.7258 55.8925 70.9288 55.8052 71.1529C55.7209 71.3702 55.6739 71.6098 55.6739 71.8624C55.6739 72.1151 55.7209 72.3547 55.8052 72.5719C55.8925 72.796 56.0214 72.999 56.181 73.1687C56.339 73.3366 56.5283 73.4728 56.7373 73.5648C56.9369 73.6526 57.1567 73.7016 57.3875 73.7016C57.4473 73.7016 57.5016 73.6987 57.5497 73.694C57.6045 73.6885 57.6591 73.68 57.7117 73.6693L57.9284 73.6254L58.0061 73.8317C58.0461 73.9383 58.0877 74.0379 58.1298 74.1275C58.1725 74.2185 58.2197 74.3089 58.2709 74.3975L58.4388 74.6874L58.1158 74.7773C57.999 74.8098 57.878 74.835 57.7548 74.8518C57.631 74.8685 57.5081 74.8776 57.3875 74.8776C57.0005 74.8776 56.6299 74.7949 56.2925 74.6466C55.9437 74.493 55.6292 74.2674 55.367 73.9884C55.1063 73.7108 54.8953 73.3782 54.7518 73.0091C54.6138 72.6548 54.5374 72.2673 54.5374 71.8624C54.5374 71.4574 54.6138 71.0699 54.7518 70.7157C54.8955 70.3464 55.1063 70.0139 55.367 69.7363C55.6292 69.4574 55.9437 69.2319 56.2925 69.0782C56.6299 68.9298 57.0005 68.8471 57.3875 68.8471ZM57.7726 69.4008C57.6485 69.3787 57.5193 69.367 57.3875 69.367C57.0736 69.367 56.7737 69.4336 56.5015 69.5534C56.2169 69.6786 55.9598 69.8635 55.7449 70.0919C55.5284 70.3221 55.3538 70.5977 55.2352 70.9023C55.1205 71.1965 55.0571 71.5208 55.0571 71.8624C55.0571 72.2039 55.1205 72.5285 55.2352 72.8225C55.3538 73.1271 55.5284 73.4026 55.7449 73.6329C55.9598 73.8614 56.2169 74.0462 56.5015 74.1714C56.7737 74.2912 57.0736 74.3578 57.3875 74.3578C57.4822 74.3578 57.5728 74.3523 57.6586 74.3417L57.5993 74.2099C57.5247 74.2172 57.4535 74.2213 57.3875 74.2213C57.0839 74.2213 56.7933 74.1566 56.5283 74.0399C56.2549 73.9196 56.0084 73.7425 55.8031 73.5243C55.5993 73.3078 55.4343 73.0473 55.3217 72.7586C55.2142 72.4813 55.1542 72.1782 55.1542 71.8624C55.1542 71.5466 55.2142 71.2436 55.3217 70.9663C55.4343 70.6775 55.5993 70.417 55.8031 70.2005C56.0084 69.9822 56.2549 69.8053 56.5283 69.6849C56.7933 69.5682 57.0839 69.5035 57.3875 69.5035C57.4837 69.5035 57.5816 69.5107 57.6807 69.5243L57.7566 69.5363L57.8257 69.4109L57.7726 69.4008ZM50.9277 64.4038C51.0884 64.4038 51.2471 64.4183 51.4023 64.4459C51.5609 64.4737 51.7155 64.5161 51.8631 64.5703L52.1854 64.6892L51.984 64.9665C51.9235 65.05 51.8686 65.1344 51.8194 65.2186C51.7673 65.308 51.7176 65.4026 51.6715 65.5006L51.5778 65.7013L51.3662 65.6407C51.2942 65.6202 51.2215 65.6045 51.1496 65.5946C51.0803 65.5851 51.0057 65.5799 50.9277 65.5799C50.6969 65.5799 50.4771 65.6288 50.2775 65.7166C50.0684 65.8086 49.879 65.9446 49.7209 66.1127C49.5613 66.2824 49.4327 66.4854 49.3454 66.7095C49.2612 66.9267 49.2141 67.1664 49.2141 67.4191C49.2141 67.6716 49.2612 67.9113 49.3454 68.1285C49.4327 68.3526 49.5613 68.5556 49.7209 68.7253C49.879 68.8934 50.0684 69.0294 50.2775 69.1214C50.4771 69.2092 50.6969 69.2582 50.9277 69.2582C50.9875 69.2582 51.0419 69.2553 51.0898 69.2506C51.1447 69.2452 51.1993 69.2366 51.2519 69.2259L51.4688 69.182L51.5463 69.3884C51.5861 69.4947 51.6274 69.5934 51.6693 69.6828C51.714 69.7779 51.7615 69.8692 51.8109 69.9552L51.9772 70.2443L51.6558 70.3338C51.5396 70.3664 51.4184 70.3916 51.295 70.4084C51.1712 70.4251 51.0483 70.4342 50.9277 70.4342C50.5404 70.4342 50.1701 70.3515 49.8327 70.2032C49.484 70.0495 49.1695 69.824 48.9072 69.545C48.6467 69.2677 48.4354 68.9356 48.292 68.5666C48.1535 68.2125 48.0773 67.8244 48.0773 67.4191C48.0773 67.0136 48.1535 66.6255 48.2918 66.2712C48.4354 65.9024 48.6467 65.5703 48.9072 65.293C49.1695 65.014 49.484 64.7885 49.8327 64.6348C50.1701 64.4864 50.5404 64.4038 50.9277 64.4038ZM51.313 64.9574C51.1884 64.9353 51.0595 64.9236 50.9277 64.9236C50.6135 64.9236 50.3138 64.9902 50.0417 65.11C49.7571 65.2352 49.5 65.42 49.2851 65.6485C49.0686 65.8787 48.8937 66.154 48.7751 66.4589C48.6606 66.7539 48.5971 67.0783 48.5971 67.4191C48.5971 67.7597 48.6606 68.084 48.7751 68.378C48.8937 68.6839 49.0686 68.9592 49.2851 69.1895C49.5 69.418 49.7571 69.6028 50.0417 69.728C50.3138 69.8478 50.6135 69.9144 50.9277 69.9144C51.0223 69.9144 51.113 69.9089 51.1986 69.8986L51.1393 69.7665C51.0649 69.7738 50.9938 69.7779 50.9277 69.7779C50.6241 69.7779 50.3336 69.7132 50.0684 69.5965C49.7953 69.4765 49.5483 69.2994 49.3431 69.0809C49.139 68.8641 48.9745 68.6039 48.862 68.3151C48.7544 68.0379 48.6943 67.7347 48.6943 67.4191C48.6943 67.1033 48.7544 66.8001 48.862 66.5229C48.9745 66.2341 49.139 65.9738 49.3431 65.7571C49.5483 65.5386 49.7953 65.3615 50.0684 65.2415C50.3336 65.1248 50.6241 65.0601 50.9277 65.0601C51.0237 65.0601 51.1219 65.0673 51.2209 65.0812L51.2968 65.0931L51.3665 64.9675L51.313 64.9574Z" fill="white"/>
<path d="M115.254 63.9518C116.369 63.9518 117.38 64.4054 118.113 65.1378L118.116 65.1412C118.849 65.8739 119.302 66.8852 119.302 68.0005C119.302 69.1157 118.849 70.1271 118.116 70.8597L118.113 70.8631C117.38 71.5955 116.369 72.049 115.254 72.049C114.138 72.049 113.127 71.5955 112.394 70.8631L112.391 70.8597C111.658 70.1271 111.205 69.1157 111.205 68.0005C111.205 66.8852 111.658 65.8739 112.391 65.1412L112.394 65.1378C113.127 64.4054 114.138 63.9518 115.254 63.9518ZM116.821 66.4327C116.421 66.0329 115.867 65.7858 115.254 65.7858C114.64 65.7858 114.086 66.0329 113.686 66.4327C113.286 66.833 113.039 67.3873 113.039 68.0005C113.039 68.6135 113.286 69.168 113.686 69.5683C114.086 69.968 114.64 70.2152 115.254 70.2152C115.867 70.2152 116.421 69.968 116.821 69.5683C117.221 69.168 117.468 68.6135 117.468 68.0005C117.468 67.3873 117.221 66.833 116.821 66.4327Z" fill="white"/>
<path d="M18.9228 64.5386C20.0381 64.5386 21.0494 64.9921 21.782 65.7246L21.7854 65.728C22.5179 66.4606 22.9715 67.4719 22.9715 68.5872C22.9715 69.7025 22.5179 70.7138 21.7854 71.4465L21.782 71.4499C21.0494 72.1823 20.0381 72.6358 18.9228 72.6358C17.8075 72.6358 16.7962 72.1823 16.0635 71.4499L16.0601 71.4465C15.3278 70.7138 14.8742 69.7025 14.8742 68.5872C14.8742 67.4719 15.3278 66.4606 16.0601 65.728L16.0635 65.7246C16.7962 64.9921 17.8075 64.5386 18.9228 64.5386ZM20.4906 67.0194C20.0903 66.6197 19.536 66.3725 18.9228 66.3725C18.3097 66.3725 17.7553 66.6197 17.355 67.0194C16.9554 67.4197 16.7081 67.974 16.7081 68.5872C16.7081 69.2004 16.9554 69.7547 17.355 70.155C17.7553 70.5547 18.3097 70.8019 18.9228 70.8019C19.536 70.8019 20.0903 70.5547 20.4906 70.155C20.8903 69.7547 21.1375 69.2004 21.1375 68.5872C21.1375 67.974 20.8903 67.4197 20.4906 67.0194Z" fill="white"/>
<path d="M68.0001 0C86.7772 0 103.777 7.61176 116.083 19.9173C128.388 32.2227 136 49.2229 136 68.0001C136 86.7769 128.388 103.777 116.083 116.083C103.777 128.388 86.7772 136 68.0001 136C49.2234 136 32.2227 128.388 19.9172 116.083C7.61175 103.777 0 86.7769 0 68.0001C0 49.2229 7.61175 32.2227 19.9172 19.9173C32.2227 7.61176 49.2234 0 68.0001 0ZM111.695 24.3054C100.513 13.1238 85.064 6.20717 68.0001 6.20717C50.936 6.20717 35.4872 13.1238 24.3054 24.3054C13.1238 35.4871 6.20717 50.936 6.20717 68.0001C6.20717 85.064 13.1238 100.513 24.3054 111.695C35.4872 122.876 50.936 129.793 68.0001 129.793C85.064 129.793 100.513 122.876 111.695 111.695C122.876 100.513 129.793 85.064 129.793 68.0001C129.793 50.936 122.876 35.4871 111.695 24.3054Z" fill="white"/>
<path d="M30.2735 34.0607L28.7193 32.5819L29.436 31.8287C30.0048 31.2308 30.5318 31.2995 30.9981 31.7432C31.4644 32.1868 31.5591 32.7098 30.9902 33.3075L30.2735 34.0607ZM33.5578 29.0531C31.8481 27.4263 29.6173 27.3767 27.5923 29.5048L24.0657 33.211L32.5302 41.2653L35.0558 38.6113L32.3657 36.0516L33.3669 34.9996C35.3919 32.8714 35.124 30.5434 33.5578 29.0531ZM40.7927 23.7421C41.1681 24.3248 41.0238 24.7711 40.4412 25.1466L39.2205 25.9335L38.1476 24.2687L39.3684 23.482C39.9511 23.1066 40.4708 23.2428 40.7927 23.7421ZM33.4053 23.6733L39.7348 33.4946L42.8144 31.51L40.5436 27.9865L40.5575 27.9775L44.6733 30.312L48.058 28.1305L43.499 25.7479C44.605 24.3873 44.6201 22.8266 43.7887 21.5365C42.6265 19.733 40.4523 19.1317 37.983 20.7231L33.4053 23.6733ZM58.0413 17.8738C56.8452 14.5682 53.5043 13.1446 50.3696 14.279C47.2504 15.4076 45.5477 18.6563 46.7439 21.9618C47.94 25.2673 51.3329 26.6896 54.4521 25.5608C57.5559 24.4377 59.2373 21.1791 58.0413 17.8738ZM50.251 20.6927C49.712 19.2029 50.1087 17.9713 51.5208 17.4602C52.902 16.9605 54.0106 17.6474 54.5496 19.1372C55.0776 20.5959 54.6709 21.8488 53.2897 22.3486C51.8776 22.8596 50.7789 22.1514 50.251 20.6927ZM65.6829 19.0706C65.7314 19.8281 65.4476 20.0447 65.0523 20.07C64.5746 20.1005 64.179 19.8613 64.1137 18.8401L60.5069 19.0707C60.7028 22.1341 62.6937 23.5282 65.4276 23.3534C67.9968 23.1891 69.505 21.687 69.3227 18.8378L68.8415 11.3113L65.2016 11.544L65.6829 19.0706ZM80.7444 12.2399L73.037 11.1125L71.346 22.6738L79.0536 23.8011L79.4763 20.9108L75.3938 20.3138L75.6327 18.6808L79.2251 19.2062L79.624 16.4792L76.0315 15.9537L76.2392 14.5331L80.3217 15.1302L80.7444 12.2399ZM81.9764 18.3585C80.8057 21.638 82.0459 24.6918 85.4187 25.8958C88.3251 26.9335 90.9204 25.8974 92.2978 23.4627L88.6609 22.1643C88.0737 22.7783 87.2711 22.9649 86.4941 22.6875C85.3284 22.2714 84.9518 21.068 85.4735 19.607C85.995 18.146 87.0485 17.4531 88.2142 17.8692C88.9913 18.1467 89.4942 18.7994 89.5597 19.6464L93.1967 20.9448C93.6726 18.1883 92.3202 15.7429 89.4138 14.7052C86.0411 13.5012 83.1472 15.0791 81.9764 18.3585ZM96.5392 20.948L99.0383 22.7304L93.9407 29.8785L96.9235 32.0057L102.021 24.8576L104.547 26.6589L106.234 24.2942L98.2256 18.5833L96.5392 20.948ZM112.499 39.3003C115.142 36.9831 115.253 33.3532 113.055 30.8463C110.869 28.3519 107.223 27.9483 104.58 30.2655C101.936 32.5825 101.846 36.2604 104.033 38.7548C106.209 41.237 109.856 41.6173 112.499 39.3003ZM107.038 33.0702C108.23 32.0259 109.521 31.9472 110.511 33.0764C111.479 34.181 111.243 35.4635 110.051 36.5079C108.885 37.5304 107.57 37.6077 106.602 36.5031C105.612 35.3738 105.872 34.0928 107.038 33.0702Z" fill="white"/>
<path d="M31.2886 110.216L34.5619 113.091L35.3573 105.685L42.0748 104.139L38.9628 101.405L33.2001 102.889L36.4458 99.1941L33.6933 96.7762L25.982 105.554L28.7345 107.972L32.0782 104.166L31.2886 110.216ZM44.4258 119.081L47.7982 120.962L49.7728 108.684L46.0835 106.626L36.6578 114.747L40.0158 116.62L41.3806 115.36L44.7817 117.257L44.4258 119.081ZM45.3463 114.416L43.5015 113.387L46.0081 111.063L45.3463 114.416ZM59.1284 116.227C58.9288 116.891 58.4954 117.071 57.8317 116.871L56.4409 116.453L57.0114 114.557L58.4021 114.975C59.0659 115.175 59.2995 115.659 59.1284 116.227ZM54.3873 110.562L51.0215 121.751L54.5297 122.806L55.7374 118.792L55.7532 118.797L56.6475 123.443L60.5035 124.603L59.3582 119.588C61.1112 119.547 62.3085 118.546 62.7507 117.076C63.3688 115.021 62.4156 112.977 59.6024 112.131L54.3873 110.562ZM72.318 124.623L76.1789 124.54L71.6718 112.95L67.448 113.041L63.4248 124.814L67.2693 124.731L67.8089 122.953L71.7027 122.87L72.318 124.623ZM70.7527 120.134L68.6407 120.179L69.6272 116.906L70.7527 120.134ZM81.2712 116.723L80.6696 114.664L81.6676 114.373C82.4598 114.141 82.881 114.465 83.0615 115.083C83.2419 115.701 83.0613 116.2 82.2692 116.432L81.2712 116.723ZM86.6258 114.042C85.9641 111.776 84.0597 110.613 81.24 111.437L76.3293 112.872L79.6055 124.087L83.1222 123.06L82.081 119.496L83.4751 119.088C86.2948 118.265 87.232 116.117 86.6258 114.042ZM99.3318 116.643L102.734 114.816L93.4536 106.538L89.7319 108.537L91.4956 120.853L94.8831 119.033L94.5563 117.204L97.9873 115.361L99.3318 116.643ZM95.898 113.355L94.0371 114.355L93.429 110.991L95.898 113.355ZM101.864 109.097C104.286 111.553 107.053 111.305 109.134 109.254C111.214 107.203 111.655 104.289 109.234 101.833L104.611 97.1433L102.013 99.7038L106.636 104.393C107.343 105.11 107.547 105.952 106.759 106.728C105.972 107.504 105.169 107.253 104.462 106.536L99.8391 101.847L97.2418 104.408L101.864 109.097Z" fill="white"/>
</svg>
