<svg width="150" height="150" viewBox="0 0 150 150" fill="none" xmlns="http://www.w3.org/2000/svg">
<path d="M44.2913 97.3467C50.7317 88.8595 55.3086 89.358 59.8519 92.8054C61.2523 93.8681 62.4806 95.1466 63.7764 96.4945C67.9215 100.808 72.9445 106.034 83.4502 98.6043C87.8412 95.4992 91.6574 93.7995 96.0508 93.7442C100.316 93.6909 104.829 95.2351 110.661 98.6087L107.627 103.847C102.771 101.038 99.209 99.7496 96.1218 99.7883C93.1632 99.8255 90.3467 101.145 86.9343 103.558C72.1916 113.984 65.192 106.7 59.4151 100.69C58.2595 99.4873 57.1636 98.3469 56.2016 97.6168C54.5016 96.3267 52.556 96.446 49.1026 100.997L44.2913 97.3467Z" fill="#36A6D4"/>
<path d="M34.5908 58.1697C40.479 45.5424 49.8589 37.4682 60.3268 33.4537C66.2143 31.1959 72.4526 30.2379 78.6088 30.4896C84.772 30.7417 90.8307 32.201 96.3545 34.7765C106.128 39.3337 114.298 47.3733 118.528 58.4048L111.92 60.9211C108.393 51.724 101.556 45.0094 93.3679 41.1913C88.6595 38.9961 83.5259 37.7532 78.3324 37.541C73.1323 37.3286 67.8473 38.1435 62.8431 40.0625C54.0028 43.4528 46.0502 50.3386 41.0058 61.1561L34.5908 58.1697Z" fill="#36A6D4"/>
<path d="M41.0058 88.8585C46.0502 99.6761 54.0028 106.562 62.8431 109.952C67.8473 111.871 73.1323 112.686 78.3324 112.474C83.5259 112.261 88.6595 111.019 93.3679 108.823C101.556 105.005 108.393 98.2907 111.92 89.0936L118.528 91.6099C114.298 102.641 106.128 110.681 96.3545 115.238C90.8307 117.814 84.772 119.273 78.6088 119.525C72.4526 119.777 66.2143 118.819 60.3268 116.561C49.8589 112.546 40.479 104.472 34.5908 91.8449L41.0058 88.8585Z" fill="#36A6D4"/>
<path d="M31.8042 60.2717C34.8751 64.893 38.0158 68.9923 41.2733 72.5303C48.2767 65.5932 55.9513 60.6282 64.5914 58.391C78.9865 54.6636 95.8418 58.531 116.409 73.482L118.831 75.2427L116.291 76.8319C95.4662 89.8617 78.842 94.2224 64.7003 91.3584C56.0175 89.5997 48.3503 85.1469 41.2929 78.3292C37.8891 82.065 34.6366 86.3027 31.498 90.937L28.1641 88.6775C31.4535 83.8206 34.8757 79.3732 38.4731 75.4451C35.0053 71.7018 31.6773 67.3734 28.4387 62.4996L31.8042 60.2717ZM44.0842 75.4138C50.6044 81.7143 57.6228 85.8146 65.4903 87.4081C71.8503 88.6961 78.8162 88.3668 86.5773 86.2618C85.7598 82.4571 85.2578 78.6426 85.2452 74.8136C85.2321 70.7922 85.7638 66.7878 87.0423 62.8086C79.1951 60.6544 72.098 60.6119 65.6027 62.2937C57.7004 64.34 50.6096 68.9472 44.0842 75.4138ZM90.4591 85.0827C96.924 82.9155 103.925 79.5805 111.561 74.9944C104.141 69.8545 97.2762 66.2586 90.8927 64.0152C89.7416 67.5887 89.2626 71.1913 89.2746 74.8136C89.2857 78.1947 89.7302 81.6235 90.4591 85.0827Z" fill="#03568A"/>
<path d="M97.6245 78.3011C99.1812 78.3011 100.443 76.9513 100.443 75.2863C100.443 73.6213 99.1812 72.2716 97.6245 72.2716C96.0679 72.2716 94.8059 73.6213 94.8059 75.2863C94.8059 76.9513 96.0679 78.3011 97.6245 78.3011Z" fill="#03568A"/>
<path d="M70.7325 63.0054C71.0591 63.0054 71.3733 63.0639 71.6656 63.1713C71.5282 63.3617 71.4039 63.5746 71.2944 63.8074C71.1152 63.7564 70.9267 63.7291 70.7325 63.7291C70.1313 63.7291 69.5869 63.9886 69.1933 64.4074C68.7995 64.8259 68.556 65.405 68.556 66.0443C68.556 66.6835 68.7995 67.2626 69.1933 67.6811C69.5869 68.0999 70.1313 68.3594 70.7325 68.3594C70.8742 68.3594 71.0127 68.3447 71.147 68.3172C71.2369 68.5565 71.3416 68.7796 71.4593 68.9837C71.2272 69.0485 70.9836 69.0832 70.7325 69.0832C69.9436 69.0832 69.2292 68.7429 68.7124 68.1931C68.1954 67.6429 67.8754 66.8833 67.8754 66.0443C67.8754 65.2052 68.1954 64.4455 68.7124 63.8954C69.2292 63.3456 69.9436 63.0054 70.7325 63.0054ZM79.2102 63.0054C79.537 63.0054 79.8512 63.0639 80.1435 63.1713C80.006 63.3617 79.8817 63.5746 79.7723 63.8074C79.593 63.7564 79.4046 63.7291 79.2102 63.7291C78.6091 63.7291 78.0648 63.9886 77.671 64.4074C77.2774 64.8259 77.0337 65.405 77.0337 66.0443C77.0337 66.6835 77.2774 67.2626 77.671 67.6811C78.0648 68.0999 78.6091 68.3594 79.2102 68.3594C79.3521 68.3594 79.4906 68.3447 79.6249 68.3172C79.7148 68.5565 79.8195 68.7796 79.9372 68.9837C79.7051 69.0485 79.4614 69.0832 79.2102 69.0832C78.4215 69.0832 77.7071 68.7429 77.1903 68.1931C76.6733 67.6429 76.3533 66.8833 76.3533 66.0443C76.3533 65.2052 76.6733 64.4455 77.1903 63.8954C77.7071 63.3456 78.4215 63.0054 79.2102 63.0054ZM79.2102 71.3207C79.537 71.3207 79.8512 71.379 80.1435 71.4866C80.006 71.6769 79.8817 71.8899 79.7723 72.1227C79.593 72.0717 79.4046 72.0444 79.2102 72.0444C78.6091 72.0444 78.0648 72.3039 77.671 72.7227C77.2774 73.1412 77.0337 73.7203 77.0337 74.3596C77.0337 74.9988 77.2774 75.5779 77.671 75.9964C78.0648 76.4152 78.6091 76.6747 79.2102 76.6747C79.3521 76.6747 79.4906 76.66 79.6249 76.6325C79.7148 76.8718 79.8195 77.0949 79.9372 77.299C79.7051 77.3638 79.4614 77.3984 79.2102 77.3984C78.4215 77.3984 77.7071 77.0582 77.1903 76.5083C76.6733 75.9582 76.3533 75.1986 76.3533 74.3596C76.3533 73.5205 76.6733 72.7608 77.1903 72.2107C77.7071 71.6609 78.4215 71.3207 79.2102 71.3207ZM79.2102 79.6167C79.537 79.6167 79.8512 79.6752 80.1435 79.7826C80.006 79.973 79.8817 80.1859 79.7723 80.4187C79.593 80.3677 79.4046 80.3405 79.2102 80.3405C78.6091 80.3405 78.0648 80.5999 77.671 81.0187C77.2774 81.4373 77.0337 82.0163 77.0337 82.6556C77.0337 83.2948 77.2774 83.8739 77.671 84.2924C78.0648 84.7113 78.6091 84.9707 79.2102 84.9707C79.3521 84.9707 79.4906 84.956 79.6249 84.9285C79.7148 85.168 79.8195 85.3909 79.9372 85.5951C79.7051 85.6598 79.4614 85.6945 79.2102 85.6945C78.4215 85.6945 77.7071 85.3542 77.1903 84.8045C76.6733 84.2544 76.3533 83.4946 76.3533 82.6556C76.3533 81.8165 76.6733 81.0568 77.1903 80.5067C77.7071 79.9569 78.4215 79.6167 79.2102 79.6167ZM70.7325 79.6167C71.0591 79.6167 71.3733 79.6752 71.6656 79.7826C71.5282 79.973 71.4039 80.1859 71.2944 80.4187C71.1152 80.3677 70.9267 80.3405 70.7325 80.3405C70.1313 80.3405 69.5869 80.5999 69.1933 81.0187C68.7995 81.4373 68.556 82.0163 68.556 82.6556C68.556 83.2948 68.7995 83.8739 69.1933 84.2924C69.5869 84.7113 70.1313 84.9707 70.7325 84.9707C70.8742 84.9707 71.0127 84.956 71.147 84.9285C71.2369 85.168 71.3416 85.3909 71.4593 85.5951C71.2272 85.6598 70.9836 85.6945 70.7325 85.6945C69.9436 85.6945 69.2292 85.3542 68.7124 84.8045C68.1954 84.2544 67.8754 83.4946 67.8754 82.6556C67.8754 81.8165 68.1954 81.0568 68.7124 80.5067C69.2292 79.9569 69.9436 79.6167 70.7325 79.6167ZM70.7325 71.3207C71.0591 71.3207 71.3733 71.379 71.6656 71.4866C71.5282 71.6769 71.4039 71.8899 71.2944 72.1227C71.1152 72.0717 70.9267 72.0444 70.7325 72.0444C70.1313 72.0444 69.5869 72.3039 69.1933 72.7227C68.7995 73.1412 68.556 73.7203 68.556 74.3596C68.556 74.9988 68.7995 75.5779 69.1933 75.9964C69.5869 76.4152 70.1313 76.6747 70.7325 76.6747C70.8742 76.6747 71.0127 76.66 71.147 76.6325C71.2369 76.8718 71.3416 77.0949 71.4593 77.299C71.2272 77.3638 70.9836 77.3984 70.7325 77.3984C69.9436 77.3984 69.2292 77.0582 68.7124 76.5083C68.1954 75.9582 67.8754 75.1986 67.8754 74.3596C67.8754 73.5205 68.1954 72.7608 68.7124 72.2107C69.2292 71.6609 69.9436 71.3207 70.7325 71.3207ZM63.2945 67.8288C63.6213 67.8288 63.9353 67.8873 64.2277 67.9947C64.0903 68.1851 63.9658 68.3981 63.8566 68.6308C63.6772 68.5798 63.4889 68.5525 63.2945 68.5525C62.6933 68.5525 62.1491 68.812 61.7553 69.2308C61.3615 69.6493 61.118 70.2284 61.118 70.8677C61.118 71.5069 61.3615 72.086 61.7553 72.5045C62.1491 72.9233 62.6933 73.1828 63.2945 73.1828C63.4362 73.1828 63.5749 73.1682 63.7091 73.1406C63.7989 73.3799 63.9036 73.603 64.0213 73.8071C63.7893 73.872 63.5456 73.9067 63.2945 73.9067C62.5058 73.9067 61.7912 73.5663 61.2744 73.0165C60.7574 72.4664 60.4374 71.7067 60.4374 70.8677C60.4374 70.0286 60.7574 69.269 61.2744 68.7188C61.7912 68.169 62.5058 67.8288 63.2945 67.8288ZM63.2945 76.2215C63.6213 76.2215 63.9353 76.28 64.2277 76.3874C64.0903 76.5777 63.9658 76.7907 63.8566 77.0235C63.6772 76.9724 63.4889 76.9452 63.2945 76.9452C62.6933 76.9452 62.1491 77.2047 61.7553 77.6235C61.3615 78.042 61.118 78.6211 61.118 79.2604C61.118 79.8996 61.3615 80.4787 61.7553 80.8972C62.1491 81.3161 62.6933 81.5755 63.2945 81.5755C63.4362 81.5755 63.5749 81.5608 63.7091 81.5333C63.7989 81.7727 63.9036 81.9957 64.0213 82.1998C63.7893 82.2646 63.5456 82.2993 63.2945 82.2993C62.5058 82.2993 61.7912 81.959 61.2744 81.4091C60.7574 80.859 60.4374 80.0994 60.4374 79.2604C60.4374 78.4213 60.7574 77.6616 61.2744 77.1115C61.7912 76.5617 62.5058 76.2215 63.2945 76.2215ZM56.1696 71.3207C56.4963 71.3207 56.8104 71.379 57.1028 71.4866C56.9654 71.6769 56.8409 71.8899 56.7317 72.1227C56.5523 72.0717 56.3639 72.0444 56.1696 72.0444C55.5684 72.0444 55.0241 72.3039 54.6304 72.7227C54.2367 73.1412 53.993 73.7203 53.993 74.3596C53.993 74.9988 54.2367 75.5779 54.6304 75.9964C55.0241 76.4152 55.5684 76.6747 56.1696 76.6747C56.3114 76.6747 56.45 76.66 56.5842 76.6325C56.674 76.8718 56.7788 77.0949 56.8965 77.299C56.6644 77.3638 56.4207 77.3984 56.1696 77.3984C55.3808 77.3984 54.6663 77.0582 54.1495 76.5083C53.6325 75.9582 53.3125 75.1986 53.3125 74.3596C53.3125 73.5205 53.6325 72.7608 54.1495 72.2107C54.6663 71.6609 55.3808 71.3207 56.1696 71.3207Z" fill="#03568A"/>
<path d="M70.733 62.7183C70.9102 62.7183 71.0853 62.7343 71.2565 62.7648C71.4313 62.7954 71.6019 62.8422 71.7647 62.9021L72.119 63.0325L71.8981 63.3378C71.8341 63.4263 71.7734 63.5195 71.7169 63.6164C71.6581 63.7188 71.6028 63.8231 71.5535 63.928L71.4497 64.1494L71.2166 64.0825C71.1373 64.0599 71.0567 64.0424 70.9779 64.0315C70.9016 64.0212 70.8196 64.0155 70.733 64.0155C70.4785 64.0155 70.2359 64.0694 70.0158 64.1663C69.7854 64.2677 69.5764 64.4177 69.4021 64.6031C69.2261 64.7903 69.0841 65.0142 68.9878 65.2613C68.8949 65.501 68.8431 65.7653 68.8431 66.0439C68.8431 66.3226 68.8949 66.5869 68.9878 66.8264C69.0841 67.0736 69.2261 67.2975 69.4021 67.4846C69.5764 67.6701 69.7854 67.8201 70.0158 67.9215C70.2359 68.0184 70.4785 68.0724 70.733 68.0724C70.7989 68.0724 70.8589 68.0692 70.9119 68.064C70.9724 68.058 71.0326 68.0486 71.0905 68.0368L71.3299 67.9884L71.4152 68.216C71.4591 68.3332 71.5047 68.4421 71.5508 68.5407C71.6002 68.6456 71.6527 68.7463 71.707 68.8412L71.8905 69.16L71.5359 69.2589C71.4078 69.2947 71.2742 69.3225 71.1381 69.3411C71.0017 69.3594 70.866 69.3695 70.733 69.3695C70.3058 69.3695 69.8974 69.2783 69.5253 69.1147C69.1406 68.9453 68.7937 68.6964 68.5045 68.3888C68.2169 68.0826 67.9839 67.7157 67.8257 67.3086C67.6737 66.9177 67.5892 66.49 67.5892 66.0439C67.5892 65.5978 67.6737 65.1701 67.8257 64.7791C67.9839 64.3721 68.2169 64.0051 68.5045 63.699C68.7937 63.3913 69.1406 63.1426 69.5253 62.9731C69.8974 62.8095 70.3058 62.7183 70.733 62.7183ZM71.1579 63.3289C71.0205 63.3045 70.8784 63.2916 70.733 63.2916C70.3864 63.2916 70.0559 63.365 69.7557 63.4972C69.4418 63.6353 69.1584 63.8392 68.9212 64.0912C68.6825 64.3451 68.4896 64.649 68.3589 64.9849C68.2327 65.3094 68.1625 65.6675 68.1625 66.0439C68.1625 66.4203 68.2327 66.7783 68.3589 67.1028C68.4896 67.4388 68.6825 67.7427 68.9212 67.9966C69.1584 68.2487 69.4418 68.4525 69.7557 68.5906C70.0559 68.7227 70.3864 68.7961 70.733 68.7961C70.8373 68.7961 70.9374 68.7901 71.0317 68.7787L70.9664 68.633C70.8844 68.6411 70.8058 68.6456 70.733 68.6456C70.3982 68.6456 70.0777 68.5742 69.7854 68.4456C69.484 68.3131 69.2117 68.1179 68.9852 67.8768C68.7602 67.6378 68.5788 67.3508 68.4546 67.0324C68.3359 66.7265 68.2697 66.3923 68.2697 66.0439C68.2697 65.6956 68.3359 65.3613 68.4546 65.0555C68.5788 64.737 68.7602 64.4501 68.9852 64.2109C69.2117 63.9699 69.484 63.7746 69.7854 63.6422C70.0777 63.5135 70.3982 63.4421 70.733 63.4421C70.8391 63.4421 70.9471 63.4501 71.0564 63.4651L71.14 63.4783L71.2166 63.34L71.1579 63.3289ZM79.2108 62.7183C79.3879 62.7183 79.5634 62.7343 79.7342 62.7645C79.9092 62.7954 80.0798 62.8422 80.2425 62.9021L80.5969 63.0325L80.3758 63.3378C80.3119 63.4263 80.2511 63.5195 80.1946 63.6164C80.1359 63.7188 80.0806 63.8231 80.0312 63.928L79.9275 64.1494L79.6944 64.0825C79.615 64.0599 79.5344 64.0424 79.4556 64.0315C79.3794 64.0212 79.2974 64.0155 79.2108 64.0155C78.9563 64.0155 78.7138 64.0694 78.4936 64.1663C78.2631 64.2677 78.0541 64.4177 77.8798 64.6031C77.7038 64.7903 77.562 65.0142 77.4656 65.2613C77.3728 65.501 77.3208 65.7653 77.3208 66.0439C77.3208 66.3226 77.3728 66.5869 77.4656 66.8264C77.562 67.0736 77.7038 67.2975 77.8798 67.4846C78.0541 67.6701 78.2631 67.8201 78.4936 67.9215C78.7138 68.0184 78.9563 68.0724 79.2108 68.0724C79.2768 68.0724 79.3366 68.0692 79.3897 68.064C79.4501 68.058 79.5104 68.0486 79.5683 68.0368L79.8076 67.9884L79.8931 68.216C79.937 68.3332 79.9826 68.4421 80.0287 68.5407C80.078 68.6456 80.1304 68.7463 80.1849 68.8412L80.3684 69.16L80.0138 69.2589C79.8857 69.2947 79.7521 69.3225 79.6159 69.3411C79.4794 69.3594 79.3438 69.3695 79.2108 69.3695C78.7837 69.3695 78.3752 69.2783 78.0031 69.1147C77.6185 68.9453 77.2715 68.6964 76.9823 68.3888C76.6948 68.0826 76.4617 67.7157 76.3035 67.3086C76.1516 66.9177 76.067 66.49 76.067 66.0439C76.067 65.5978 76.1516 65.1701 76.3035 64.7791C76.4617 64.3721 76.6948 64.0051 76.9823 63.699C77.2715 63.3913 77.6185 63.1426 78.0031 62.9731C78.3752 62.8095 78.7837 62.7183 79.2108 62.7183ZM79.6356 63.3286C79.4989 63.3045 79.3564 63.2916 79.2108 63.2916C78.8643 63.2916 78.5338 63.365 78.2336 63.4972C77.9197 63.6353 77.6361 63.8392 77.3991 64.0912C77.1603 64.3451 76.9674 64.649 76.8366 64.9849C76.7106 65.3094 76.6403 65.6675 76.6403 66.0439C76.6403 66.4203 76.7106 66.7783 76.8366 67.1028C76.9674 67.4388 77.1603 67.7427 77.3991 67.9966C77.6361 68.2487 77.9197 68.4525 78.2336 68.5906C78.5338 68.7227 78.8643 68.7961 79.2108 68.7961C79.3152 68.7961 79.4152 68.7901 79.5096 68.7787L79.4442 68.633C79.3621 68.6411 79.2837 68.6456 79.2108 68.6456C78.876 68.6456 78.5556 68.5742 78.2631 68.4456C77.9619 68.3131 77.6895 68.1179 77.4631 67.8768C77.238 67.6378 77.0565 67.3508 76.9325 67.0324C76.8138 66.7265 76.7476 66.3923 76.7476 66.0439C76.7476 65.6956 76.8138 65.3613 76.9325 65.0555C77.0565 64.737 77.238 64.4501 77.4631 64.2109C77.6895 63.9699 77.9619 63.7746 78.2631 63.6422C78.5556 63.5135 78.876 63.4421 79.2108 63.4421C79.3169 63.4421 79.425 63.4501 79.5342 63.4651L79.6179 63.4783L79.6944 63.3398L79.6356 63.3286ZM79.2108 71.0336C79.3879 71.0336 79.5634 71.0496 79.7342 71.0797C79.9092 71.1107 80.0798 71.1575 80.2425 71.2173L80.5969 71.3478L80.3758 71.6531C80.3119 71.7416 80.2511 71.8348 80.1946 71.9317C80.1359 72.0341 80.0806 72.1384 80.0312 72.2433L79.9275 72.4647L79.6944 72.3978C79.615 72.3752 79.5344 72.3577 79.4556 72.3468C79.3794 72.3365 79.2974 72.3308 79.2108 72.3308C78.9563 72.3308 78.7138 72.3846 78.4936 72.4816C78.2631 72.583 78.0541 72.733 77.8798 72.9184C77.7038 73.1056 77.562 73.3295 77.4656 73.5766C77.3728 73.8162 77.3208 74.0806 77.3208 74.3592C77.3208 74.6378 77.3728 74.9022 77.4656 75.1418C77.562 75.3889 77.7038 75.6128 77.8798 75.8C78.0541 75.9854 78.2631 76.1354 78.4936 76.2368C78.7138 76.3337 78.9563 76.3877 79.2108 76.3877C79.2768 76.3877 79.3366 76.3845 79.3897 76.3793C79.4501 76.3733 79.5104 76.3639 79.5683 76.3521L79.8076 76.3037L79.8931 76.5313C79.937 76.6485 79.9826 76.7574 80.0287 76.856C80.078 76.9609 80.1304 77.0616 80.1849 77.1565L80.3684 77.4753L80.0138 77.5741C79.8857 77.61 79.7521 77.6377 79.6159 77.6564C79.4794 77.6747 79.3438 77.6848 79.2108 77.6848C78.7837 77.6848 78.3752 77.5936 78.0031 77.43C77.6185 77.2605 77.2715 77.0117 76.9823 76.7041C76.6948 76.3979 76.4617 76.031 76.3035 75.6239C76.1516 75.2329 76.067 74.8053 76.067 74.3592C76.067 73.9131 76.1516 73.4854 76.3035 73.0944C76.4617 72.6874 76.6948 72.3204 76.9823 72.0143C77.2715 71.7066 77.6185 71.4579 78.0031 71.2884C78.3752 71.1248 78.7837 71.0336 79.2108 71.0336ZM79.6356 71.6439C79.4989 71.6198 79.3564 71.6069 79.2108 71.6069C78.8643 71.6069 78.5338 71.6803 78.2336 71.8125C77.9197 71.9506 77.6361 72.1544 77.3991 72.4065C77.1603 72.6604 76.9674 72.9643 76.8366 73.3002C76.7106 73.6247 76.6403 73.9828 76.6403 74.3592C76.6403 74.7356 76.7106 75.0936 76.8366 75.4181C76.9674 75.7541 77.1603 76.058 77.3991 76.3119C77.6361 76.564 77.9197 76.7678 78.2336 76.9059C78.5338 77.038 78.8643 77.1114 79.2108 77.1114C79.3152 77.1114 79.4152 77.1054 79.5096 77.094L79.4442 76.9483C79.3621 76.9564 79.2837 76.9609 79.2108 76.9609C78.876 76.9609 78.5556 76.8896 78.2631 76.7609C77.9619 76.6285 77.6895 76.4332 77.4631 76.1921C77.238 75.9531 77.0565 75.6661 76.9325 75.3475C76.8138 75.0418 76.7476 74.7074 76.7476 74.3592C76.7476 74.0109 76.8138 73.6766 76.9325 73.3708C77.0565 73.0523 77.238 72.7653 77.4631 72.5262C77.6895 72.2852 77.9619 72.0899 78.2631 71.9575C78.5556 71.8288 78.876 71.7574 79.2108 71.7574C79.3169 71.7574 79.425 71.7654 79.5342 71.7803L79.6179 71.7936L79.6944 71.6551L79.6356 71.6439ZM79.2108 79.3297C79.3879 79.3297 79.5634 79.3457 79.7342 79.3758C79.9092 79.4068 80.0798 79.4535 80.2425 79.5134L80.5969 79.6439L80.3758 79.9491C80.3119 80.0378 80.2511 80.131 80.1946 80.2277C80.1359 80.3301 80.0806 80.4345 80.0312 80.5394L79.9275 80.7607L79.6944 80.6938C79.615 80.6712 79.5344 80.6538 79.4556 80.6429C79.3794 80.6326 79.2974 80.6268 79.2108 80.6268C78.9563 80.6268 78.7138 80.6807 78.4936 80.7776C78.2631 80.879 78.0541 81.029 77.8798 81.2144C77.7038 81.4016 77.562 81.6255 77.4656 81.8726C77.3728 82.1123 77.3208 82.3766 77.3208 82.6553C77.3208 82.9339 77.3728 83.1982 77.4656 83.4379C77.562 83.6849 77.7038 83.9088 77.8798 84.0961C78.0541 84.2816 78.2631 84.4314 78.4936 84.5329C78.7138 84.6299 78.9563 84.6837 79.2108 84.6837C79.2768 84.6837 79.3366 84.6805 79.3897 84.6753C79.4501 84.6693 79.5104 84.6599 79.5683 84.6482L79.8076 84.5997L79.8931 84.8273C79.937 84.9445 79.9826 85.0536 80.0287 85.1521C80.078 85.2571 80.1304 85.3576 80.1849 85.4525L80.3684 85.7713L80.0138 85.8702C79.8857 85.906 79.7521 85.9339 79.6159 85.9525C79.4794 85.9709 79.3438 85.9808 79.2108 85.9808C78.7837 85.9808 78.3752 85.8896 78.0031 85.726C77.6185 85.5566 77.2715 85.3077 76.9823 85.0001C76.6948 84.6941 76.4617 84.327 76.3035 83.9201C76.1516 83.529 76.067 83.1013 76.067 82.6553C76.067 82.2093 76.1516 81.7816 76.3035 81.3904C76.4617 80.9834 76.6948 80.6165 76.9823 80.3103C77.2715 80.0028 77.6185 79.7539 78.0031 79.5846C78.3752 79.4208 78.7837 79.3297 79.2108 79.3297ZM79.6356 79.9399C79.4989 79.9159 79.3564 79.903 79.2108 79.903C78.8643 79.903 78.5338 79.9763 78.2336 80.1085C77.9197 80.2467 77.6361 80.4505 77.3991 80.7025C77.1603 80.9565 76.9674 81.2603 76.8366 81.5964C76.7106 81.9208 76.6403 82.2789 76.6403 82.6553C76.6403 83.0316 76.7106 83.3896 76.8366 83.7142C76.9674 84.0501 77.1603 84.354 77.3991 84.6081C77.6361 84.86 77.9197 85.0638 78.2336 85.202C78.5338 85.3342 78.8643 85.4076 79.2108 85.4076C79.3152 85.4076 79.4152 85.4015 79.5096 85.39L79.4442 85.2445C79.3621 85.2524 79.2837 85.2571 79.2108 85.2571C78.876 85.2571 78.5556 85.1857 78.2631 85.0569C77.9619 84.9245 77.6895 84.7293 77.4631 84.4882C77.238 84.2491 77.0565 83.9622 76.9325 83.6437C76.8138 83.3378 76.7476 83.0036 76.7476 82.6553C76.7476 82.307 76.8138 81.9727 76.9325 81.6668C77.0565 81.3483 77.238 81.0614 77.4631 80.8224C77.6895 80.5812 77.9619 80.3861 78.2631 80.2535C78.5556 80.1248 78.876 80.0535 79.2108 80.0535C79.3169 80.0535 79.425 80.0616 79.5342 80.0764L79.6179 80.0896L79.6944 79.9512L79.6356 79.9399ZM70.733 79.3297C70.9102 79.3297 71.0853 79.3457 71.2565 79.3761C71.4313 79.4068 71.6019 79.4535 71.7647 79.5134L72.119 79.6439L71.8981 79.9491C71.8341 80.0378 71.7734 80.131 71.7169 80.2277C71.6581 80.3301 71.6028 80.4345 71.5535 80.5394L71.4497 80.7607L71.2166 80.6938C71.1373 80.6712 71.0567 80.6538 70.9779 80.6429C70.9016 80.6326 70.8196 80.6268 70.733 80.6268C70.4785 80.6268 70.2359 80.6807 70.0158 80.7776C69.7854 80.879 69.5764 81.029 69.4021 81.2144C69.2261 81.4016 69.0841 81.6255 68.9878 81.8726C68.8949 82.1123 68.8431 82.3766 68.8431 82.6553C68.8431 82.9339 68.8949 83.1982 68.9878 83.4379C69.0841 83.6849 69.2261 83.9088 69.4021 84.0961C69.5764 84.2816 69.7854 84.4314 70.0158 84.5329C70.2359 84.6299 70.4785 84.6837 70.733 84.6837C70.7989 84.6837 70.8589 84.6805 70.9119 84.6753C70.9724 84.6693 71.0326 84.6599 71.0905 84.6482L71.3299 84.5997L71.4152 84.8273C71.4591 84.9445 71.5047 85.0536 71.5508 85.1521C71.6002 85.2571 71.6527 85.3576 71.707 85.4525L71.8905 85.7713L71.5359 85.8702C71.4078 85.906 71.2742 85.9339 71.1381 85.9525C71.0017 85.9709 70.866 85.9808 70.733 85.9808C70.3058 85.9808 69.8974 85.8896 69.5253 85.726C69.1406 85.5566 68.7937 85.3077 68.5045 85.0001C68.2169 84.6941 67.9839 84.327 67.8257 83.9201C67.6737 83.529 67.5892 83.1013 67.5892 82.6553C67.5892 82.2093 67.6737 81.7816 67.8257 81.3904C67.9839 80.9834 68.2169 80.6165 68.5045 80.3103C68.7937 80.0028 69.1406 79.7539 69.5253 79.5846C69.8974 79.4208 70.3058 79.3297 70.733 79.3297ZM71.1579 79.9403C71.0205 79.9158 70.8784 79.903 70.733 79.903C70.3864 79.903 70.0559 79.9763 69.7557 80.1085C69.4418 80.2467 69.1584 80.4505 68.9212 80.7025C68.6825 80.9565 68.4896 81.2603 68.3589 81.5964C68.2327 81.9208 68.1625 82.2789 68.1625 82.6553C68.1625 83.0316 68.2327 83.3896 68.3589 83.7142C68.4896 84.0501 68.6825 84.354 68.9212 84.6081C69.1584 84.86 69.4418 85.0638 69.7557 85.202C70.0559 85.3342 70.3864 85.4076 70.733 85.4076C70.8373 85.4076 70.9374 85.4015 71.0317 85.39L70.9664 85.2445C70.8844 85.2524 70.8058 85.2571 70.733 85.2571C70.3982 85.2571 70.0777 85.1857 69.7854 85.0569C69.484 84.9245 69.2117 84.7293 68.9852 84.4882C68.7602 84.2491 68.5788 83.9622 68.4546 83.6437C68.3359 83.3378 68.2697 83.0036 68.2697 82.6553C68.2697 82.307 68.3359 81.9727 68.4546 81.6668C68.5788 81.3483 68.7602 81.0614 68.9852 80.8224C69.2117 80.5812 69.484 80.3861 69.7854 80.2535C70.0777 80.1248 70.3982 80.0535 70.733 80.0535C70.8391 80.0535 70.9471 80.0616 71.0564 80.0764L71.14 80.0896L71.2166 79.9515L71.1579 79.9403ZM70.733 71.0336C70.9102 71.0336 71.0853 71.0496 71.2565 71.0801C71.4313 71.1107 71.6019 71.1575 71.7647 71.2173L72.119 71.3478L71.8981 71.6531C71.8341 71.7416 71.7734 71.8348 71.7169 71.9317C71.6581 72.0341 71.6028 72.1384 71.5535 72.2433L71.4497 72.4647L71.2166 72.3978C71.1373 72.3752 71.0567 72.3577 70.9779 72.3468C70.9016 72.3365 70.8196 72.3308 70.733 72.3308C70.4785 72.3308 70.2359 72.3846 70.0158 72.4816C69.7854 72.583 69.5764 72.733 69.4021 72.9184C69.2261 73.1056 69.0841 73.3295 68.9878 73.5766C68.8949 73.8162 68.8431 74.0806 68.8431 74.3592C68.8431 74.6378 68.8949 74.9022 68.9878 75.1418C69.0841 75.3889 69.2261 75.6128 69.4021 75.8C69.5764 75.9854 69.7854 76.1354 70.0158 76.2368C70.2359 76.3337 70.4785 76.3877 70.733 76.3877C70.7989 76.3877 70.8589 76.3845 70.9119 76.3793C70.9724 76.3733 71.0326 76.3639 71.0905 76.3521L71.3299 76.3037L71.4152 76.5313C71.4591 76.6485 71.5047 76.7574 71.5508 76.856C71.6002 76.9609 71.6527 77.0616 71.707 77.1565L71.8905 77.4753L71.5359 77.5741C71.4078 77.61 71.2742 77.6377 71.1381 77.6564C71.0017 77.6747 70.866 77.6848 70.733 77.6848C70.3058 77.6848 69.8974 77.5936 69.5253 77.43C69.1406 77.2605 68.7937 77.0117 68.5045 76.7041C68.2169 76.3979 67.9839 76.031 67.8257 75.6239C67.6737 75.2329 67.5892 74.8053 67.5892 74.3592C67.5892 73.9131 67.6737 73.4854 67.8257 73.0944C67.9839 72.6874 68.2169 72.3204 68.5045 72.0143C68.7937 71.7066 69.1406 71.4579 69.5253 71.2884C69.8974 71.1248 70.3058 71.0336 70.733 71.0336ZM71.1579 71.6442C71.0205 71.6198 70.8784 71.6069 70.733 71.6069C70.3864 71.6069 70.0559 71.6803 69.7557 71.8125C69.4418 71.9506 69.1584 72.1544 68.9212 72.4065C68.6825 72.6604 68.4896 72.9643 68.3589 73.3002C68.2327 73.6247 68.1625 73.9828 68.1625 74.3592C68.1625 74.7356 68.2327 75.0936 68.3589 75.4181C68.4896 75.7541 68.6825 76.058 68.9212 76.3119C69.1584 76.564 69.4418 76.7678 69.7557 76.9059C70.0559 77.038 70.3864 77.1114 70.733 77.1114C70.8373 77.1114 70.9374 77.1054 71.0317 77.094L70.9664 76.9483C70.8844 76.9564 70.8058 76.9609 70.733 76.9609C70.3982 76.9609 70.0777 76.8896 69.7854 76.7609C69.484 76.6285 69.2117 76.4332 68.9852 76.1921C68.7602 75.9531 68.5788 75.6661 68.4546 75.3475C68.3359 75.0418 68.2697 74.7074 68.2697 74.3592C68.2697 74.0109 68.3359 73.6766 68.4546 73.3708C68.5788 73.0523 68.7602 72.7653 68.9852 72.5262C69.2117 72.2852 69.484 72.0899 69.7854 71.9575C70.0777 71.8288 70.3982 71.7574 70.733 71.7574C70.8391 71.7574 70.9471 71.7654 71.0564 71.7803L71.14 71.7936L71.2166 71.6553L71.1579 71.6442ZM63.295 67.5417C63.4721 67.5417 63.6478 67.5578 63.8184 67.5882C63.9936 67.6188 64.1638 67.6656 64.3269 67.7255L64.6813 67.856L64.4602 68.1612C64.3977 68.2477 64.337 68.3412 64.2793 68.4401C64.2183 68.5462 64.163 68.65 64.1156 68.7515L64.0125 68.9724L63.7789 68.9059C63.6991 68.8833 63.6186 68.8658 63.5397 68.8549C63.4636 68.8447 63.3815 68.8389 63.295 68.8389C63.0404 68.8389 62.7979 68.8928 62.5778 68.9897C62.3472 69.0911 62.1385 69.2414 61.9642 69.4265C61.7882 69.6137 61.6461 69.8376 61.5497 70.0847C61.4568 70.3244 61.4049 70.5887 61.4049 70.8674C61.4049 71.146 61.4568 71.4103 61.5497 71.6499C61.6461 71.897 61.7882 72.1209 61.9642 72.3081C62.1385 72.4933 62.3472 72.6435 62.5778 72.7449C62.7979 72.8418 63.0404 72.8958 63.295 72.8958C63.3609 72.8958 63.4207 72.8926 63.4738 72.8874C63.5343 72.8815 63.5945 72.872 63.6525 72.8602L63.8915 72.8118L63.9772 73.0394C64.0214 73.1569 64.0672 73.2667 64.1136 73.3656C64.1607 73.4659 64.2128 73.5657 64.2693 73.6634L64.4545 73.983L64.0982 74.0823C63.9694 74.1181 63.8359 74.1459 63.7001 74.1645C63.5635 74.1828 63.4279 74.1929 63.295 74.1929C62.8681 74.1929 62.4593 74.1017 62.0872 73.9381C61.7025 73.7687 61.3556 73.5198 61.0665 73.2122C60.7789 72.906 60.5461 72.5391 60.3879 72.1321C60.2357 71.7413 60.1514 71.3139 60.1514 70.8674C60.1514 70.4207 60.2357 69.9933 60.3879 69.6026C60.5464 69.1952 60.7789 68.8286 61.0665 68.5224C61.3556 68.2148 61.7025 67.966 62.0872 67.7965C62.4593 67.6329 62.8681 67.5417 63.295 67.5417ZM63.7197 68.1523C63.5828 68.128 63.4403 68.1151 63.295 68.1151C62.9487 68.1151 62.6179 68.1884 62.3177 68.3206C62.0038 68.4587 61.7203 68.6625 61.4832 68.9146C61.2445 69.1685 61.0518 69.4724 60.921 69.8084C60.7946 70.1329 60.7247 70.4906 60.7247 70.8674C60.7247 71.244 60.7946 71.602 60.921 71.9263C61.0518 72.2622 61.2445 72.5661 61.4832 72.82C61.7203 73.0721 62.0038 73.2759 62.3177 73.414C62.6179 73.5462 62.9487 73.6196 63.295 73.6196C63.3993 73.6196 63.4993 73.6136 63.594 73.6019L63.5286 73.4564C63.4463 73.4645 63.3677 73.4691 63.295 73.4691C62.9601 73.4691 62.6396 73.3977 62.3472 73.269C62.0457 73.1363 61.7738 72.941 61.5474 72.7003C61.3226 72.4615 61.1406 72.1742 61.0165 71.8558C60.8979 71.5499 60.8317 71.2156 60.8317 70.8674C60.8317 70.5191 60.8979 70.1847 61.0165 69.879C61.1406 69.5604 61.3226 69.2731 61.5474 69.0344C61.7738 68.7936 62.0457 68.5983 62.3472 68.4656C62.6396 68.3369 62.9601 68.2656 63.295 68.2656C63.4011 68.2656 63.509 68.2735 63.6183 68.2884L63.7021 68.3017L63.7782 68.1635L63.7197 68.1523ZM63.295 75.9343C63.4721 75.9343 63.6478 75.9504 63.8184 75.9809C63.9936 76.0115 64.1638 76.0583 64.3269 76.1182L64.6813 76.2486L64.4602 76.5539C64.3977 76.6404 64.337 76.7339 64.2793 76.8328C64.2183 76.9389 64.163 77.0427 64.1156 77.1441L64.0125 77.3652L63.7789 77.2986C63.6991 77.276 63.6186 77.2585 63.5397 77.2476C63.4636 77.2373 63.3815 77.2316 63.295 77.2316C63.0404 77.2316 62.7979 77.2855 62.5778 77.3824C62.3472 77.4838 62.1385 77.634 61.9642 77.8192C61.7882 78.0064 61.6461 78.2303 61.5497 78.4774C61.4568 78.7171 61.4049 78.9814 61.4049 79.26C61.4049 79.5387 61.4568 79.803 61.5497 80.0425C61.6461 80.2897 61.7882 80.5136 61.9642 80.7007C62.1385 80.8859 62.3472 81.0362 62.5778 81.1376C62.7979 81.2345 63.0404 81.2885 63.295 81.2885C63.3609 81.2885 63.4207 81.2853 63.4738 81.2801C63.5343 81.2741 63.5945 81.2647 63.6525 81.2529L63.8915 81.2045L63.9772 81.4321C64.0214 81.5496 64.0672 81.6594 64.1136 81.7583C64.1607 81.8587 64.2128 81.9584 64.2693 82.0561L64.4545 82.3758L64.0982 82.475C63.9694 82.5108 63.8359 82.5386 63.7001 82.5572C63.5635 82.5755 63.4279 82.5856 63.295 82.5856C62.8681 82.5856 62.4593 82.4944 62.0872 82.3308C61.7025 82.1614 61.3556 81.9125 61.0665 81.6049C60.7789 81.2987 60.5461 80.9318 60.3879 80.5247C60.2357 80.134 60.1514 79.7066 60.1514 79.26C60.1514 78.8134 60.2357 78.386 60.3879 77.9952C60.5464 77.5879 60.7789 77.2212 61.0665 76.9151C61.3556 76.6074 61.7025 76.3587 62.0872 76.1892C62.4593 76.0256 62.8681 75.9343 63.295 75.9343ZM63.7197 76.545C63.5828 76.5206 63.4403 76.5077 63.295 76.5077C62.9487 76.5077 62.6179 76.5811 62.3177 76.7133C62.0038 76.8514 61.7203 77.0553 61.4832 77.3073C61.2445 77.5612 61.0518 77.8651 60.921 78.201C60.7946 78.5255 60.7247 78.8833 60.7247 79.26C60.7247 79.6367 60.7946 79.9947 60.921 80.3189C61.0518 80.6549 61.2445 80.9588 61.4832 81.2127C61.7203 81.4648 62.0038 81.6686 62.3177 81.8067C62.6179 81.9388 62.9487 82.0122 63.295 82.0122C63.3993 82.0122 63.4993 82.0062 63.594 81.9945L63.5286 81.8491C63.4463 81.8572 63.3677 81.8617 63.295 81.8617C62.9601 81.8617 62.6396 81.7903 62.3472 81.6617C62.0457 81.529 61.7738 81.3337 61.5474 81.0929C61.3226 80.8542 61.1406 80.5669 61.0165 80.2485C60.8979 79.9426 60.8317 79.6084 60.8317 79.26C60.8317 78.9117 60.8979 78.5775 61.0165 78.2716C61.1406 77.9531 61.3226 77.6658 61.5474 77.427C61.7738 77.1863 62.0457 76.9911 62.3472 76.8583C62.6396 76.7296 62.9601 76.6582 63.295 76.6582C63.4011 76.6582 63.509 76.6662 63.6183 76.6812L63.7021 76.6944L63.7782 76.5561L63.7197 76.545ZM56.1702 71.0336C56.3474 71.0336 56.5225 71.0496 56.6936 71.0801C56.8685 71.1107 57.0391 71.1575 57.2018 71.2173L57.5573 71.3484L57.3352 71.6543C57.2684 71.7463 57.2079 71.8395 57.1537 71.9323C57.0961 72.0309 57.0414 72.1352 56.9906 72.2433L56.8872 72.4647L56.6538 72.3978C56.5743 72.3752 56.4942 72.3579 56.4149 72.347C56.3385 72.3365 56.2562 72.3308 56.1702 72.3308C55.9156 72.3308 55.6731 72.3846 55.453 72.4816C55.2224 72.583 55.0135 72.733 54.8392 72.9184C54.6631 73.1056 54.5213 73.3295 54.4249 73.5766C54.3321 73.8162 54.2801 74.0806 54.2801 74.3592C54.2801 74.6378 54.3321 74.9022 54.4249 75.1418C54.5213 75.3889 54.6631 75.6128 54.8392 75.8C55.0135 75.9854 55.2224 76.1354 55.453 76.2368C55.6731 76.3337 55.9156 76.3877 56.1702 76.3877C56.2361 76.3877 56.2961 76.3845 56.349 76.3793C56.4095 76.3733 56.4697 76.3639 56.5277 76.3521L56.767 76.3037L56.8524 76.5313C56.8963 76.6485 56.9419 76.7574 56.9881 76.856C57.0374 76.9609 57.0898 77.0616 57.1443 77.1565L57.3277 77.4753L56.9732 77.5741C56.845 77.61 56.7114 77.6377 56.5753 77.6564C56.4387 77.6747 56.3031 77.6848 56.1702 77.6848C55.743 77.6848 55.3345 77.5936 54.9624 77.43C54.5778 77.2605 54.231 77.0117 53.9417 76.7041C53.6544 76.3982 53.4213 76.0319 53.2631 75.6249C53.1104 75.2344 53.0264 74.8063 53.0264 74.3592C53.0264 73.912 53.1104 73.4839 53.2629 73.0932C53.4213 72.6864 53.6544 72.3202 53.9417 72.0143C54.231 71.7066 54.5778 71.4579 54.9624 71.2884C55.3345 71.1248 55.743 71.0336 56.1702 71.0336ZM56.5951 71.6442C56.4577 71.6198 56.3155 71.6069 56.1702 71.6069C55.8236 71.6069 55.4931 71.6803 55.1929 71.8125C54.879 71.9506 54.5955 72.1544 54.3585 72.4065C54.1197 72.6604 53.9268 72.964 53.796 73.3002C53.6697 73.6257 53.5996 73.9834 53.5996 74.3592C53.5996 74.7349 53.6697 75.0927 53.796 75.4169C53.9268 75.7543 54.1197 76.058 54.3585 76.3119C54.5955 76.564 54.879 76.7678 55.1929 76.9059C55.4931 77.038 55.8236 77.1114 56.1702 77.1114C56.2745 77.1114 56.3745 77.1054 56.4689 77.094L56.4035 76.9483C56.3215 76.9564 56.243 76.9609 56.1702 76.9609C55.8353 76.9609 55.5149 76.8896 55.2224 76.7609C54.9212 76.6285 54.6488 76.4332 54.4224 76.1921C54.1973 75.9531 54.0159 75.6661 53.8918 75.3475C53.7731 75.0418 53.7069 74.7074 53.7069 74.3592C53.7069 74.0109 53.7731 73.6766 53.8918 73.3708C54.0159 73.0523 54.1973 72.7653 54.4224 72.5262C54.6488 72.2852 54.9212 72.0899 55.2224 71.9575C55.5149 71.8288 55.8353 71.7574 56.1702 71.7574C56.276 71.7574 56.3844 71.7654 56.4935 71.7807L56.5773 71.7939L56.6541 71.6553L56.5951 71.6442Z" fill="#03568A"/>
<path d="M127.118 70.5352C128.348 70.5352 129.463 71.0354 130.271 71.8432L130.275 71.8469C131.083 72.6551 131.583 73.7704 131.583 75.0006C131.583 76.2305 131.083 77.3461 130.275 78.1541L130.271 78.1578C129.463 78.9657 128.348 79.4658 127.118 79.4658C125.888 79.4658 124.772 78.9657 123.964 78.1578L123.96 78.1541C123.153 77.3461 122.652 76.2305 122.652 75.0006C122.652 73.7704 123.153 72.6551 123.96 71.8469L123.964 71.8432C124.772 71.0354 125.888 70.5352 127.118 70.5352ZM128.847 73.2714C128.406 72.8304 127.794 72.5579 127.118 72.5579C126.442 72.5579 125.83 72.8304 125.389 73.2714C124.948 73.7129 124.675 74.3243 124.675 75.0006C124.675 75.6767 124.948 76.2882 125.389 76.7297C125.83 77.1706 126.442 77.4432 127.118 77.4432C127.794 77.4432 128.406 77.1706 128.847 76.7297C129.288 76.2882 129.561 75.6767 129.561 75.0006C129.561 74.3243 129.288 73.7129 128.847 73.2714Z" fill="#36A6D4"/>
<path d="M20.8707 71.1824C22.1008 71.1824 23.2162 71.6826 24.0242 72.4905L24.0279 72.4942C24.8358 73.3023 25.3361 74.4177 25.3361 75.6478C25.3361 76.8779 24.8358 77.9933 24.0279 78.8014L24.0242 78.8052C23.2162 79.6129 22.1008 80.1132 20.8707 80.1132C19.6406 80.1132 18.5252 79.6129 17.717 78.8052L17.7133 78.8014C16.9055 77.9933 16.4053 76.8779 16.4053 75.6478C16.4053 74.4177 16.9055 73.3023 17.7133 72.4942L17.717 72.4905C18.5252 71.6826 19.6406 71.1824 20.8707 71.1824ZM22.5999 73.9186C22.1584 73.4777 21.547 73.2051 20.8707 73.2051C20.1944 73.2051 19.583 73.4777 19.1415 73.9186C18.7007 74.3601 18.428 74.9715 18.428 75.6478C18.428 76.324 18.7007 76.9355 19.1415 77.377C19.583 77.8178 20.1944 78.0905 20.8707 78.0905C21.547 78.0905 22.1584 77.8178 22.5999 77.377C23.0407 76.9355 23.3134 76.324 23.3134 75.6478C23.3134 74.9715 23.0407 74.3601 22.5999 73.9186Z" fill="#36A6D4"/>
<path d="M75.0001 0C95.7101 0 114.46 8.39532 128.033 21.9676C141.605 35.5398 150 54.29 150 75.0001C150 95.7099 141.605 114.46 128.033 128.033C114.46 141.605 95.7101 150 75.0001 150C54.2906 150 35.5398 141.605 21.9676 128.033C8.39532 114.46 0 95.7099 0 75.0001C0 54.29 8.39532 35.5398 21.9676 21.9676C35.5398 8.39532 54.2906 0 75.0001 0ZM123.193 26.8075C110.86 14.4748 93.8206 6.84614 75.0001 6.84614C56.1794 6.84614 39.1403 14.4748 26.8075 26.8075C14.4748 39.1401 6.84614 56.1794 6.84614 75.0001C6.84614 93.8206 14.4748 110.86 26.8075 123.193C39.1403 135.525 56.1794 143.154 75.0001 143.154C93.8206 143.154 110.86 135.525 123.193 123.193C135.525 110.86 143.154 93.8206 143.154 75.0001C143.154 56.1794 135.525 39.1401 123.193 26.8075Z" fill="#36A6D4"/>
<path d="M33.3898 37.567L31.6756 35.9359L32.4661 35.1052C33.0934 34.4458 33.6747 34.5216 34.189 35.0109C34.7032 35.5002 34.8077 36.077 34.1803 36.7362L33.3898 37.567ZM37.0122 32.0439C35.1265 30.2496 32.666 30.1949 30.4326 32.542L26.543 36.6298L35.8789 45.5133L38.6644 42.586L35.6974 39.7628L36.8016 38.6025C39.0351 36.2553 38.7396 33.6876 37.0122 32.0439ZM44.9918 26.1862C45.4059 26.8288 45.2468 27.3211 44.6041 27.7352L43.2578 28.6031L42.0745 26.767L43.421 25.8993C44.0636 25.4852 44.6368 25.6354 44.9918 26.1862ZM36.844 26.1103L43.8251 36.9426L47.2216 34.7537L44.7171 30.8675L44.7324 30.8575L49.2719 33.4324L53.0051 31.0264L47.9768 28.3985C49.1966 26.8978 49.2133 25.1764 48.2962 23.7535C47.0144 21.7644 44.6164 21.1011 41.8929 22.8564L36.844 26.1103ZM64.016 19.7138C62.6968 16.0679 59.0121 14.4978 55.5546 15.7489C52.1143 16.9937 50.2364 20.5768 51.5557 24.2226C52.8749 27.8683 56.6171 29.437 60.0574 28.192C63.4807 26.9534 65.3352 23.3593 64.016 19.7138ZM55.4238 22.8229C54.8293 21.1797 55.2668 19.8213 56.8244 19.2576C58.3477 18.7064 59.5704 19.4641 60.1649 21.1073C60.7472 22.7161 60.2987 24.0979 58.7753 24.6492C57.2179 25.2128 56.0061 24.4318 55.4238 22.8229ZM72.4443 21.0337C72.4977 21.8693 72.1848 22.1082 71.7488 22.1361C71.2219 22.1697 70.7856 21.9058 70.7135 20.7796L66.7355 21.0339C66.9515 24.4126 69.1473 25.9502 72.1627 25.7575C74.9964 25.5763 76.6598 23.9195 76.4588 20.777L75.9281 12.4757L71.9135 12.7324L72.4443 21.0337ZM89.0563 13.4999L80.5554 12.2565L78.6903 25.0079L87.1914 26.2512L87.6576 23.0634L83.1548 22.4049L83.4183 20.6038L87.3805 21.1833L87.8204 18.1756L83.8582 17.596L84.0873 16.0291L88.59 16.6877L89.0563 13.4999ZM90.4151 20.2483C89.1238 23.8654 90.4917 27.2337 94.2117 28.5616C97.4173 29.7061 100.28 28.5633 101.799 25.878L97.7877 24.446C97.14 25.1232 96.2549 25.329 95.3978 25.023C94.1121 24.564 93.6968 23.2367 94.2721 21.6253C94.8474 20.0139 96.0093 19.2498 97.295 19.7087C98.1521 20.0147 98.7067 20.7346 98.779 21.6688L102.79 23.1009C103.315 20.0606 101.824 17.3635 98.618 16.219C94.8982 14.891 91.7064 16.6313 90.4151 20.2483ZM106.477 23.1045L109.233 25.0703L103.611 32.9543L106.901 35.3005L112.523 27.4165L115.309 29.4033L117.17 26.7951L108.337 20.4963L106.477 23.1045ZM124.08 43.3459C126.995 40.7902 127.117 36.7866 124.693 34.0217C122.282 31.2705 118.261 30.8254 115.345 33.381C112.43 35.9366 112.33 39.9931 114.742 42.7443C117.142 45.482 121.164 45.9014 124.08 43.3459ZM118.057 36.4745C119.371 35.3227 120.795 35.2359 121.887 36.4814C122.955 37.6997 122.694 39.1142 121.38 40.2661C120.093 41.3939 118.643 41.4791 117.575 40.2608C116.484 39.0153 116.77 37.6024 118.057 36.4745Z" fill="#03568A"/>
<path d="M34.5094 121.562L38.1196 124.733L38.9969 116.564L46.4059 114.859L42.9736 111.844L36.6176 113.48L40.1975 109.405L37.1616 106.738L28.6565 116.42L31.6924 119.087L35.3803 114.889L34.5094 121.562ZM48.999 131.339L52.7186 133.414L54.8964 119.872L50.8273 117.602L40.4313 126.559L44.135 128.625L45.6403 127.235L49.3915 129.328L48.999 131.339ZM50.0142 126.194L47.9796 125.059L50.7441 122.495L50.0142 126.194ZM65.215 128.192C64.9949 128.924 64.5169 129.122 63.7848 128.902L62.2509 128.441L62.8802 126.349L64.4141 126.811C65.1462 127.031 65.4038 127.565 65.215 128.192ZM59.9859 121.943L56.2736 134.284L60.143 135.448L61.475 131.021L61.4924 131.026L62.4788 136.15L66.7318 137.43L65.4686 131.899C67.4019 131.853 68.7226 130.749 69.2102 129.128C69.8919 126.862 68.8406 124.607 65.7379 123.673L59.9859 121.943ZM79.7624 137.452L84.0208 137.361L79.0497 124.577L74.3911 124.677L69.9538 137.662L74.194 137.571L74.7892 135.61L79.0837 135.518L79.7624 137.452ZM78.036 132.5L75.7066 132.55L76.7946 128.94L78.036 132.5ZM89.6372 128.739L88.9737 126.468L90.0745 126.146C90.9482 125.891 91.4128 126.248 91.6118 126.93C91.8108 127.611 91.6117 128.162 90.738 128.417L89.6372 128.739ZM95.5431 125.781C94.8132 123.283 92.7129 122 89.6028 122.909L84.1866 124.491L87.8001 136.861L91.6788 135.728L90.5305 131.797L92.0681 131.348C95.178 130.439 96.2116 128.07 95.5431 125.781ZM109.557 128.651L113.309 126.635L103.074 117.505L98.9689 119.71L100.914 133.294L104.65 131.287L104.29 129.269L108.074 127.237L109.557 128.651ZM105.77 125.024L103.717 126.126L103.047 122.416L105.77 125.024ZM112.35 120.328C115.021 123.037 118.074 122.762 120.368 120.501C122.662 118.239 123.149 115.025 120.478 112.315L115.379 107.143L112.515 109.967L117.613 115.139C118.393 115.93 118.618 116.858 117.749 117.715C116.881 118.571 115.995 118.294 115.215 117.503L110.117 112.331L107.252 115.155L112.35 120.328Z" fill="#03568A"/>
</svg>
