<svg width="173" height="163" viewBox="0 0 173 163" fill="none" xmlns="http://www.w3.org/2000/svg">
<g filter="url(#filter0_d)">
<rect x="7" y="7" width="158.315" height="148.693" rx="22.7413" fill="white"/>
</g>
<path d="M59.3646 109.976L55.1534 75.3364C54.7571 71.8589 55.9348 68.5996 58.0889 66.2226L56.1346 63.8142C49.1989 63.8142 43.809 69.8532 44.5944 76.7443L48.3818 109.98C49.395 118.871 56.919 125.586 65.8674 125.586H76.8509L76.8502 125.582C67.9018 125.582 60.3778 118.867 59.3646 109.976Z" fill="#CEE1F2"/>
<path d="M106.262 129.105H65.8672C55.1218 129.105 46.1013 121.054 44.8845 110.378L41.0971 77.1429C40.6094 72.8631 41.9747 68.5653 44.843 65.3516C47.7112 62.1377 51.8268 60.2946 56.1344 60.2946C58.0784 60.2946 59.6542 61.8704 59.6542 63.8143C59.6542 65.7583 58.0784 67.3341 56.1344 67.3341C53.7965 67.3341 51.6517 68.2946 50.0949 70.039C48.5381 71.7832 47.8266 74.023 48.0913 76.3458L51.8787 109.581C52.6899 116.699 58.7035 122.066 65.8671 122.066H106.262C113.426 122.066 119.439 116.699 120.25 109.581L124.038 76.3458C124.302 74.023 123.591 71.7832 122.034 70.039C120.477 68.2946 118.333 67.3341 115.995 67.3341C114.051 67.3341 112.475 65.7583 112.475 63.8143C112.475 61.8704 114.051 60.2946 115.995 60.2946C120.302 60.2946 124.418 62.1379 127.286 65.3516C130.154 68.5653 131.52 72.8631 131.032 77.1429L127.244 110.378C126.028 121.054 117.008 129.105 106.262 129.105ZM73.3799 71.9096V58.8865C73.3799 51.8027 79.1432 46.0395 86.227 46.0395C93.3108 46.0395 99.074 51.8027 99.074 58.8865V60.2944H83.9392C81.9952 60.2944 80.4194 61.8702 80.4194 63.8142C80.4194 65.7581 81.9952 67.3339 83.9392 67.3339H102.594C104.538 67.3339 106.114 65.7581 106.114 63.8142V58.8865C106.114 47.921 97.1926 39 86.227 39C75.2614 39 66.3405 47.921 66.3405 58.8865V71.9096C66.3405 73.8535 67.9162 75.4293 69.8602 75.4293C71.8042 75.4293 73.3799 73.8535 73.3799 71.9096Z" fill="#1428BF"/>
<path d="M75.3159 90.2122C75.3159 92.6421 73.346 94.6119 70.9162 94.6119C68.4863 94.6119 66.5165 92.6421 66.5165 90.2122C66.5165 87.7824 68.4863 85.8125 70.9162 85.8125C73.346 85.8125 75.3159 87.7824 75.3159 90.2122ZM86.0511 85.8125C83.6212 85.8125 81.6514 87.7824 81.6514 90.2122C81.6514 92.6421 83.6212 94.6119 86.0511 94.6119C88.4809 94.6119 90.4507 92.6421 90.4507 90.2122C90.4507 87.7824 88.4809 85.8125 86.0511 85.8125ZM101.186 85.8125C98.7561 85.8125 96.7863 87.7824 96.7863 90.2122C96.7863 92.6421 98.7561 94.6119 101.186 94.6119C103.616 94.6119 105.586 92.6421 105.586 90.2122C105.586 87.7824 103.616 85.8125 101.186 85.8125ZM70.9162 100.947C68.4863 100.947 66.5165 102.917 66.5165 105.347C66.5165 107.777 68.4863 109.747 70.9162 109.747C73.346 109.747 75.3159 107.777 75.3159 105.347C75.3159 102.917 73.346 100.947 70.9162 100.947ZM86.0511 100.947C83.6212 100.947 81.6514 102.917 81.6514 105.347C81.6514 107.777 83.6212 109.747 86.0511 109.747C88.4809 109.747 90.4507 107.777 90.4507 105.347C90.4507 102.917 88.4809 100.947 86.0511 100.947ZM101.186 100.947C98.7561 100.947 96.7863 102.917 96.7863 105.347C96.7863 107.777 98.7561 109.747 101.186 109.747C103.616 109.747 105.586 107.777 105.586 105.347C105.586 102.917 103.616 100.947 101.186 100.947Z" fill="#03568A"/>
<defs>
<filter id="filter0_d" x="0.00266647" y="0.00266647" width="172.309" height="162.688" filterUnits="userSpaceOnUse" color-interpolation-filters="sRGB">
<feFlood flood-opacity="0" result="BackgroundImageFix"/>
<feColorMatrix in="SourceAlpha" type="matrix" values="0 0 0 0 0 0 0 0 0 0 0 0 0 0 0 0 0 0 127 0"/>
<feOffset/>
<feGaussianBlur stdDeviation="3.49867"/>
<feColorMatrix type="matrix" values="0 0 0 0 0 0 0 0 0 0 0 0 0 0 0 0 0 0 0.05 0"/>
<feBlend mode="normal" in2="BackgroundImageFix" result="effect1_dropShadow"/>
<feBlend mode="normal" in="SourceGraphic" in2="effect1_dropShadow" result="shape"/>
</filter>
</defs>
</svg>
