<svg width="44" height="45" viewBox="0 0 44 45" fill="none" xmlns="http://www.w3.org/2000/svg">
<path d="M36.2316 22.6136C35.3736 22.6136 34.6781 23.3092 34.6781 24.1672V39.7028C34.6781 40.5609 33.9825 41.2564 33.1245 41.2564H5.16065C4.30262 41.2564 3.60707 40.5609 3.60707 39.7028V8.63152C3.60707 7.77348 4.30262 7.07792 5.16065 7.07792H23.8033C24.6613 7.07792 25.3568 6.38237 25.3568 5.52432C25.3568 4.66628 24.6613 3.97082 23.8033 3.97082H5.16065C2.58664 3.97082 0.5 6.05748 0.5 8.63152V39.7028C0.5 42.2769 2.58664 44.3635 5.16065 44.3635H33.1246C35.6986 44.3635 37.7852 42.2769 37.7852 39.7028V24.1671C37.7852 23.3092 37.0897 22.6136 36.2316 22.6136Z" fill="#4F3A57"/>
<path d="M42.2585 2.60579C41.1431 1.49006 39.6301 0.863368 38.0525 0.86355C36.4739 0.858998 34.9594 1.48678 33.847 2.6068L13.3836 23.0702C13.2138 23.2413 13.0857 23.4492 13.0092 23.6777L9.90212 32.9998C9.63095 33.8139 10.0711 34.6937 10.8851 34.9648C11.0431 35.0174 11.2085 35.0442 11.3749 35.0444C11.5416 35.0442 11.7074 35.0174 11.8658 34.9652L21.1871 31.8579C21.416 31.7814 21.624 31.6527 21.7945 31.4819L42.2579 11.0169C44.5805 8.69437 44.5807 4.92858 42.2585 2.60579ZM40.0612 8.82145L19.865 29.0193L13.831 31.0344L15.8397 25.0076L36.0436 4.80986C37.1544 3.70123 38.9535 3.70305 40.0621 4.81387C40.5916 5.34452 40.89 6.06288 40.8923 6.81256C40.8942 7.56625 40.595 8.28944 40.0612 8.82145Z" fill="#4F3A57"/>
</svg>
