<svg width="173" height="163" viewBox="0 0 173 163" fill="none" xmlns="http://www.w3.org/2000/svg">
<g filter="url(#filter0_d)">
<rect x="7" y="7" width="158.315" height="148.693" rx="22.7413" fill="white"/>
</g>
<path d="M60.9419 106.423V62.4065C60.9419 53.4754 68.1643 46.2354 77.0737 46.2354H67.2512C58.3165 46.2354 51.0735 53.4783 51.0735 62.4131V106.416C51.0735 115.351 58.3165 122.594 67.2512 122.594H77.0737C68.1643 122.594 60.9419 115.354 60.9419 106.423Z" fill="#CEE1F2"/>
<path d="M116.593 62.4132V93.1508C116.423 97.4437 110.292 97.4405 110.122 93.1508V62.4132C110.122 55.2769 104.316 49.4711 97.1802 49.4711H67.4132C60.2769 49.4711 54.4711 55.2769 54.4711 62.4132V106.417C54.4711 113.553 60.2769 119.359 67.4132 119.359H77.1198C81.4127 119.53 81.4095 125.66 77.1198 125.83H67.4132C56.7088 125.83 48 117.121 48 106.417V62.4132C48 51.7088 56.7088 43 67.4132 43H97.1802C107.885 43 116.593 51.7088 116.593 62.4132ZM99.7686 58.8541C99.5978 54.5617 93.4672 54.564 93.2975 58.8541C93.2975 61.5302 91.1203 63.7074 88.4442 63.7074H76.1492C73.4731 63.7074 71.2959 61.5302 71.2959 58.8541C71.2959 57.0671 69.8473 55.6186 68.0603 55.6186C66.2733 55.6186 64.8248 57.0671 64.8248 58.8541C64.8248 65.0984 69.9049 70.1785 76.1492 70.1785H88.4442C94.6885 70.1785 99.7686 65.0984 99.7686 58.8541ZM98.4744 93.9597H80.5172C76.2242 94.1305 76.2275 100.261 80.5172 100.431H98.4744C102.767 100.26 102.764 94.1291 98.4744 93.9597ZM98.4744 81.0176H80.5172C76.2242 81.1884 76.2275 87.3193 80.5172 87.4886H98.4744C102.767 87.3178 102.764 81.1869 98.4744 81.0176Z" fill="#0023C4"/>
<path d="M122.451 105.781L105.539 122.859C101.805 126.794 95.0657 126.793 91.3311 122.859L83.8748 115.293C82.6204 114.021 82.6353 111.972 83.908 110.718C85.1805 109.463 87.2289 109.478 88.4835 110.751L95.9353 118.312C97.2536 119.699 99.6207 119.698 100.94 118.307L117.853 101.228C120.995 98.298 125.349 102.614 122.451 105.781ZM66.9277 92.8272C64.694 92.8272 62.8833 94.6379 62.8833 96.8716C63.0963 102.236 70.7599 102.235 70.9721 96.8716C70.9721 94.6379 69.1613 92.8272 66.9277 92.8272ZM66.9277 79.885C64.694 79.885 62.8833 81.6958 62.8833 83.9294C63.0963 89.2943 70.7599 89.2928 70.9721 83.9294C70.9721 81.6958 69.1613 79.885 66.9277 79.885Z" fill="#03568A"/>
<defs>
<filter id="filter0_d" x="0.00266647" y="0.00266647" width="172.309" height="162.688" filterUnits="userSpaceOnUse" color-interpolation-filters="sRGB">
<feFlood flood-opacity="0" result="BackgroundImageFix"/>
<feColorMatrix in="SourceAlpha" type="matrix" values="0 0 0 0 0 0 0 0 0 0 0 0 0 0 0 0 0 0 127 0"/>
<feOffset/>
<feGaussianBlur stdDeviation="3.49867"/>
<feColorMatrix type="matrix" values="0 0 0 0 0 0 0 0 0 0 0 0 0 0 0 0 0 0 0.05 0"/>
<feBlend mode="normal" in2="BackgroundImageFix" result="effect1_dropShadow"/>
<feBlend mode="normal" in="SourceGraphic" in2="effect1_dropShadow" result="shape"/>
</filter>
</defs>
</svg>
