<svg width="41" height="46" viewBox="0 0 41 46" fill="none" xmlns="http://www.w3.org/2000/svg">
<path d="M39.016 30.2918L35.0054 26.2589V16.3215C35.0588 12.6313 33.7752 9.04651 31.3917 6.2289C29.0082 3.41128 25.6857 1.55119 22.0378 0.992081C19.9207 0.713271 17.7684 0.889175 15.7247 1.50806C13.6809 2.12694 11.7927 3.17457 10.1859 4.58104C8.57907 5.98751 7.2907 7.72048 6.40672 9.66433C5.52275 11.6082 5.06349 13.7182 5.05959 15.8536V26.2589L1.04899 30.2918C0.545223 30.8039 0.203603 31.4532 0.0668345 32.1585C-0.0699344 32.8637 0.00421564 33.5937 0.280014 34.257C0.555813 34.9203 1.02102 35.4877 1.61749 35.8881C2.21396 36.2885 2.91521 36.5042 3.6336 36.5082H11.1201V37.2658C11.2241 39.5277 12.2206 41.6562 13.8912 43.1848C15.5618 44.7134 17.7702 45.5174 20.0325 45.4206C22.2948 45.5174 24.5032 44.7134 26.1738 43.1848C27.8444 41.6562 28.8409 39.5277 28.945 37.2658V36.5082H36.4314C37.1498 36.5042 37.8511 36.2885 38.4475 35.8881C39.044 35.4877 39.5092 34.9203 39.785 34.257C40.0608 33.5937 40.1349 32.8637 39.9982 32.1585C39.8614 31.4532 39.5198 30.8039 39.016 30.2918ZM24.4887 37.2658C24.3652 38.3375 23.8329 39.3202 23.0027 40.0092C22.1726 40.6982 21.1087 41.0404 20.0325 40.9644C18.9564 41.0404 17.8924 40.6982 17.0623 40.0092C16.2321 39.3202 15.6999 38.3375 15.5763 37.2658V36.5082H24.4887V37.2658ZM5.57206 32.052L8.20123 29.4228C8.61826 29.0082 8.94912 28.5152 9.17474 27.9722C9.40036 27.4292 9.51628 26.8469 9.51581 26.2589V15.8536C9.51703 14.3505 9.83975 12.8651 10.4623 11.497C11.0849 10.1289 11.9929 8.90979 13.1254 7.92151C14.2426 6.90924 15.5664 6.15183 17.0053 5.70171C18.4441 5.25159 19.9636 5.11952 21.4585 5.31462C24.0353 5.73301 26.3742 7.06817 28.0446 9.07429C29.715 11.0804 30.6044 13.6224 30.5492 16.2324V26.2589C30.5458 26.8453 30.6582 27.4267 30.88 27.9697C31.1017 28.5126 31.4285 29.0064 31.8415 29.4228L34.493 32.052H5.57206Z" fill="#4F3A57"/>
</svg>
