<svg width="31" height="36" viewBox="0 0 31 36" fill="none" xmlns="http://www.w3.org/2000/svg">
<path d="M28.7822 14.9119C28.7822 25.3481 15.3642 34.2934 15.3642 34.2934C15.3642 34.2934 1.94623 25.3481 1.94623 14.9119C1.94623 11.3532 3.3599 7.94029 5.87626 5.42393C8.39262 2.90757 11.8055 1.4939 15.3642 1.4939C18.9229 1.4939 22.3358 2.90757 24.8522 5.42393C27.3685 7.94029 28.7822 11.3532 28.7822 14.9119Z" stroke="#441688" stroke-width="2.98177" stroke-linecap="round" stroke-linejoin="round"/>
<path d="M15.3643 19.3845C17.8344 19.3845 19.8369 17.3821 19.8369 14.9119C19.8369 12.4417 17.8344 10.4392 15.3643 10.4392C12.8941 10.4392 10.8916 12.4417 10.8916 14.9119C10.8916 17.3821 12.8941 19.3845 15.3643 19.3845Z" stroke="#441688" stroke-width="2.98177" stroke-linecap="round" stroke-linejoin="round"/>
</svg>
