<svg width="173" height="163" viewBox="0 0 173 163" fill="none" xmlns="http://www.w3.org/2000/svg">
<g filter="url(#filter0_d)">
<rect x="7" y="7" width="158.315" height="148.693" rx="22.7413" fill="white"/>
</g>
<path d="M84.1852 79.0228C82.4456 79.5867 80.5899 79.8929 78.6624 79.8929C68.7816 79.8929 60.7716 71.883 60.7716 62.0021C60.7716 52.1213 68.7816 44.1114 78.6624 44.1114C80.5899 44.1114 82.4456 44.4176 84.1852 44.9815C77.0074 47.309 71.8172 54.0489 71.8172 62.0021C71.8172 69.9554 77.0074 76.6953 84.1852 79.0228ZM100.094 108.207V104.006C100.094 98.8513 104.273 94.6722 109.428 94.6722H100.094C94.9389 94.6722 90.7598 98.8513 90.7598 104.006V108.207C90.7598 113.362 94.9389 117.541 100.094 117.541H109.428C104.273 117.541 100.094 113.362 100.094 108.207Z" fill="#CEE1F2"/>
<path d="M114.873 92.2392V88.1382C114.873 82.9912 110.686 78.8039 105.539 78.8039C100.392 78.8039 96.2047 82.9912 96.2047 88.1382V92.1865C91.2417 93.8237 87.6483 98.502 87.6483 104.006V108.207C87.6483 115.069 93.2314 120.653 100.094 120.653H110.828C117.691 120.653 123.274 115.069 123.274 108.207V104.006C123.274 98.5598 119.756 93.9223 114.873 92.2392ZM102.428 88.1382C102.428 86.4225 103.823 85.0267 105.539 85.0267C107.255 85.0267 108.65 86.4225 108.65 88.1382V91.5607H102.428V88.1382ZM117.051 108.207C117.051 111.638 114.26 114.43 110.828 114.43H100.094C96.6627 114.43 93.8711 111.638 93.8711 108.207V104.006C93.8711 100.575 96.6627 97.7836 100.094 97.7836H110.828C114.26 97.7836 117.051 100.575 117.051 104.006V108.207ZM101.339 62.0022C101.339 50.4216 91.917 41 80.3364 41C68.7558 41 59.3343 50.4216 59.3343 62.0022C59.3343 73.5827 68.7558 83.0043 80.3364 83.0043C91.917 83.0043 101.339 73.5827 101.339 62.0022ZM80.3364 76.7815C72.1871 76.7815 65.5571 70.1515 65.5571 62.0022C65.5571 53.8529 72.1871 47.2229 80.3364 47.2229C88.4857 47.2229 95.1157 53.8529 95.1157 62.0022C95.1157 70.1515 88.4857 76.7815 80.3364 76.7815Z" fill="#1428BF"/>
<path d="M53.1114 120.653C51.393 120.653 50 119.26 50 117.541C50 101.929 62.7016 89.2272 78.314 89.2272H81.4255C83.1439 89.2272 84.5369 90.6202 84.5369 92.3386C84.5369 94.057 83.1439 95.45 81.4255 95.45H78.314C66.1329 95.45 56.2229 105.36 56.2229 117.541C56.2229 119.26 54.8299 120.653 53.1114 120.653ZM105.435 102.295C103.287 102.295 101.546 104.036 101.546 106.184C101.546 108.332 103.287 110.074 105.435 110.074C107.583 110.074 109.325 108.332 109.325 106.184C109.325 104.036 107.583 102.295 105.435 102.295Z" fill="#03568A"/>
<defs>
<filter id="filter0_d" x="0.00266647" y="0.00266647" width="172.309" height="162.688" filterUnits="userSpaceOnUse" color-interpolation-filters="sRGB">
<feFlood flood-opacity="0" result="BackgroundImageFix"/>
<feColorMatrix in="SourceAlpha" type="matrix" values="0 0 0 0 0 0 0 0 0 0 0 0 0 0 0 0 0 0 127 0"/>
<feOffset/>
<feGaussianBlur stdDeviation="3.49867"/>
<feColorMatrix type="matrix" values="0 0 0 0 0 0 0 0 0 0 0 0 0 0 0 0 0 0 0.05 0"/>
<feBlend mode="normal" in2="BackgroundImageFix" result="effect1_dropShadow"/>
<feBlend mode="normal" in="SourceGraphic" in2="effect1_dropShadow" result="shape"/>
</filter>
</defs>
</svg>
