<svg width="173" height="163" viewBox="0 0 173 163" fill="none" xmlns="http://www.w3.org/2000/svg">
<g filter="url(#filter0_d)">
<rect x="7" y="7" width="158.315" height="148.693" rx="22.7413" fill="white"/>
</g>
<path d="M61.6198 85.1632C61.4581 68.3164 73.9949 54.2441 90.2438 52.0874C88.8048 51.8987 87.3349 51.7999 85.8389 51.7999C67.5497 51.7999 52.6258 66.8417 52.8016 85.1632L52.8001 117.878L53.3477 117.33C55.6316 115.046 58.582 113.594 61.6185 113.058L61.6198 85.1632Z" fill="#CEE1F2"/>
<path d="M52.7993 120.677C52.4385 120.677 52.0748 120.608 51.7283 120.464C50.6821 120.031 49.9999 119.01 49.9999 117.877L50.0015 85.1768C49.913 75.5737 53.6062 66.5064 60.4017 59.6454C67.2008 52.7806 76.2344 49 85.8386 49C95.5142 49 104.562 52.7548 111.315 59.5728C118.089 66.4126 121.769 75.5103 121.676 85.1902C121.584 94.7231 117.793 103.654 111.002 110.339C104.228 117.006 95.2447 120.677 85.707 120.677C85.6957 120.677 85.6837 120.677 85.6725 120.677C80.0305 120.678 74.6445 119.412 69.6642 116.916C64.9053 114.531 59.1438 115.493 55.3273 119.31L54.7796 119.857C54.2441 120.393 53.5278 120.677 52.7993 120.677ZM64.1768 110.017C66.8958 110.017 69.6311 110.636 72.1732 111.91C76.3671 114.012 80.91 115.078 85.6751 115.078H85.7041C102.296 115.079 115.918 101.65 116.076 85.1363C116.155 76.9623 113.051 69.2832 107.336 63.5134C101.643 57.7654 94.0085 54.5998 85.8386 54.5998C77.7403 54.5998 70.1196 57.7911 64.3802 63.5859C58.6411 69.3805 55.5233 77.0339 55.6011 85.1363C55.6011 85.1453 55.6013 85.1544 55.6013 85.1634L55.6 112.192C58.2532 110.757 61.2048 110.017 64.1768 110.017Z" fill="#1428BF"/>
<path d="M77.4392 84.8387C77.4392 86.7716 75.8722 88.3386 73.9393 88.3386C72.0064 88.3386 70.4395 86.7716 70.4395 84.8387C70.4395 82.9058 72.0064 81.3388 73.9393 81.3388C75.8722 81.3388 77.4392 82.9058 77.4392 84.8387ZM85.9789 81.3388C84.046 81.3388 82.479 82.9058 82.479 84.8387C82.479 86.7716 84.046 88.3386 85.9789 88.3386C87.9118 88.3386 89.4788 86.7716 89.4788 84.8387C89.4788 82.9058 87.9118 81.3388 85.9789 81.3388ZM98.0185 81.3388C96.0855 81.3388 94.5186 82.9058 94.5186 84.8387C94.5186 86.7716 96.0855 88.3386 98.0185 88.3386C99.9514 88.3386 101.518 86.7716 101.518 84.8387C101.518 82.9058 99.9514 81.3388 98.0185 81.3388Z" fill="#DF5CF0"/>
<defs>
<filter id="filter0_d" x="0.00266647" y="0.00266647" width="172.309" height="162.688" filterUnits="userSpaceOnUse" color-interpolation-filters="sRGB">
<feFlood flood-opacity="0" result="BackgroundImageFix"/>
<feColorMatrix in="SourceAlpha" type="matrix" values="0 0 0 0 0 0 0 0 0 0 0 0 0 0 0 0 0 0 127 0"/>
<feOffset/>
<feGaussianBlur stdDeviation="3.49867"/>
<feColorMatrix type="matrix" values="0 0 0 0 0 0 0 0 0 0 0 0 0 0 0 0 0 0 0.05 0"/>
<feBlend mode="normal" in2="BackgroundImageFix" result="effect1_dropShadow"/>
<feBlend mode="normal" in="SourceGraphic" in2="effect1_dropShadow" result="shape"/>
</filter>
</defs>
</svg>
